<svg xmlns="http://www.w3.org/2000/svg" viewBox="0 0 500 500"><g id="freepik--background-complete--inject-141"><g><g><g><path d="M443.92,320.2h-180.75c-3.23,0-5.86-2.63-5.86-5.86V51.06c0-3.23,2.63-5.86,5.86-5.86h180.75c3.23,0,5.86,2.63,5.86,5.86V314.34c0,3.23-2.63,5.86-5.86,5.86ZM263.17,45.45c-3.09,0-5.61,2.52-5.61,5.61V314.34c0,3.09,2.52,5.61,5.61,5.61h180.75c3.09,0,5.61-2.52,5.61-5.61V51.06c0-3.09-2.52-5.61-5.61-5.61h-180.75Z" style="fill:#e0e0e0;"></path><path d="M235.49,320.2H54.75c-3.23,0-5.86-2.63-5.86-5.86V51.06c0-3.23,2.63-5.86,5.86-5.86H235.49c3.23,0,5.86,2.63,5.86,5.86V314.34c0,3.23-2.63,5.86-5.86,5.86ZM54.75,45.45c-3.09,0-5.61,2.52-5.61,5.61V314.34c0,3.09,2.52,5.61,5.61,5.61H235.49c3.09,0,5.61-2.52,5.61-5.61V51.06c0-3.09-2.52-5.61-5.61-5.61H54.75Z" style="fill:#e0e0e0;"></path></g><rect x="0" y="381.27" width="500" height=".25" style="fill:#e0e0e0;"></rect></g><rect x="51.67" y="395.53" width="16.06" height=".25" style="fill:#e0e0e0;"></rect><rect x="170.35" y="392.82" width="53.53" height=".25" style="fill:#e0e0e0;"></rect><rect x="68.73" y="404.82" width="36.25" height=".25" style="fill:#e0e0e0;"></rect><rect x="378.35" y="392.69" width="43.19" height=".25" style="fill:#e0e0e0;"></rect><rect x="430.45" y="392.69" width="6.33" height=".25" style="fill:#e0e0e0;"></rect><rect x="316.21" y="398.92" width="53.89" height=".25" style="fill:#e0e0e0;"></rect></g><g><g><path d="M70.08,348.84c-.01-.35-1.18-34.91-6.8-40.37-5.47-5.31-11.74-.2-12.01,.02l-.56-.68c.07-.06,7.15-5.84,13.18,.02,5.87,5.71,7.02,39.54,7.07,40.97l-.88,.03Z" style="fill:#e0e0e0;"></path><path d="M70.56,355.64c-.04-.41-3.84-41.49,11.16-58.7l.66,.58c-14.75,16.93-10.99,57.63-10.95,58.04l-.88,.09Z" style="fill:#e0e0e0;"></path><path d="M70.01,351.29l-.88-.06c.03-.47,2.94-46.69-8.07-56.81l.6-.65c11.31,10.4,8.48,55.6,8.35,57.52Z" style="fill:#e0e0e0;"></path><path d="M71.44,351.27h-.88c.01-1.28,.36-31.23,8.87-36.11,1.89-1.09,3.74-1.27,5.5-.54,5.14,2.13,7.69,11.28,7.8,11.67l-.85,.23c-.02-.09-2.54-9.13-7.29-11.09-1.5-.62-3.09-.45-4.73,.49-8.07,4.63-8.43,35.04-8.43,35.35Z" style="fill:#e0e0e0;"></path><path d="M68.13,351.29l-.88-.05c.01-.24,1.28-23.67-5.04-31.93-1.53-2-3.2-2.95-4.95-2.83-4.14,.29-7.62,6.35-7.65,6.41l-.77-.43c.15-.27,3.74-6.54,8.36-6.86,2.07-.15,3.99,.92,5.71,3.17,6.52,8.51,5.28,31.53,5.22,32.51Z" style="fill:#e0e0e0;"></path><path d="M69.52,354.47c-.17-2.27-4.13-55.78,2.84-65.21l.71,.52c-6.78,9.17-2.71,64.06-2.67,64.62l-.88,.07Z" style="fill:#e0e0e0;"></path></g><path d="M86.83,320.04s-4.18,1.54-2.94,5.18c1.24,3.64,14.47,9.63,14.47,9.63,0,0,5.54-5.08,.45-13.33-5.09-8.26-11.87-4.08-11.98-1.48Z" style="fill:#ebebeb;"></path><path d="M68.65,313.11s4.45-.19,4.71,3.65c.25,3.84-9.65,14.46-9.65,14.46,0,0-7.07-2.55-5.55-12.13,1.52-9.58,9.38-8.34,10.49-5.98Z" style="fill:#ebebeb;"></path><path d="M64.88,294.74s2.97-.32,2.73-2.13c-.24-1.81-11.54-6.46-18.21,1.06,0,0,4.27,7.33,10.44,7.43,6.17,.1,5.04-6.37,5.04-6.37Z" style="fill:#ebebeb;"></path><path d="M70.42,290.35s-2.69,1.3-3.44-.36c-.75-1.66,6.38-11.59,16.02-8.73,0,0,.26,8.48-4.93,11.83-5.19,3.35-7.64-2.74-7.64-2.74Z" style="fill:#ebebeb;"></path><path d="M56.36,318.58s2.05-1.65-.16-2.46-13.06-.58-13.18,10.17c0,0,12.64,2.1,14.2-1.99,1.56-4.09-.86-5.71-.86-5.71Z" style="fill:#ebebeb;"></path><path d="M82.13,294.47s-2.05-1.65,.16-2.46c2.21-.81,13.06-.58,13.17,10.17,0,0-12.64,2.1-14.2-1.99-1.56-4.09,.86-5.71,.86-5.71Z" style="fill:#ebebeb;"></path><path d="M75.45,303.13s-.18-2.01,1.44-1.22c1.62,.79,7.28,6.89,1.42,12.68,0,0-7.89-5.85-6.47-8.89,1.42-3.04,3.61-2.57,3.61-2.57Z" style="fill:#ebebeb;"></path><path d="M54.53,306s1.22-1.61-.57-1.8c-1.79-.2-9.83,1.95-7.96,9.97,0,0,9.79-.74,10.21-4.07,.42-3.33-1.68-4.1-1.68-4.1Z" style="fill:#ebebeb;"></path><polygon points="88.47 381.06 54.86 381.06 51.24 344.26 92.09 344.26 88.47 381.06" style="fill:#f0f0f0;"></polygon><rect x="48.59" y="340.2" width="44.44" height="8.12" style="fill:#e6e6e6;"></rect></g><g><rect x="363.94" y="175.83" width="96.22" height="1.62" style="fill:#e0e0e0;"></rect><path d="M424.95,208.2c-2.29,22.76-.58,40.21,.28,61.05,.91,22.1-2.76,43.84-2.15,67.21,1.38-.87,2.62-1.3,3.87,0,1.82,1.27,3.4,1.68,4.81,0,1.85,0,3.11-.88,4.14,0,1.38-18.15,3.23-37.18,1.38-49.58-.26-2.53,7.35-1.85,7.51-5.41,.8-16.38-2.61-46.43-5.44-73.09,0-.19-.02-.38-.07-.57l-3.18-13.54c-.16-.71-.49-1.37-.94-1.93l-.86-1.08-1.38-6.91v-8.52h-.8v8.47l-2.47,3.94-7.69,6.84,3,13.13Z" style="fill:#e0e0e0;"></path><path d="M374.01,194.32l-2.29,12.29c0,.11,0,.21,0,.32l-3.85,129.52c1.38-2.76,2.61-2.27,3.87,0,1.71,2.24,3.31,2.33,4.81,0,1.92-2.04,3.14-1.45,4.14,0l1.38-49.58,2.07-78.5c.03-.19,.03-.38,0-.57l-3.18-13.54c-.16-.71-.49-1.37-.94-1.93l-.86-1.08-1.38-6.91v-8.52h-.8v8.47l-.84,7.13-1.22,1.38c-.45,.41-.76,.93-.91,1.52Z" style="fill:#e0e0e0;"></path><path d="M390.23,194.32l-2.29,12.29c0,.11,0,.21,0,.32-3.43,40.23-4.43,83.78-3.85,129.52,1.38-2.76,2.6-2.27,3.85,0,1.71,2.24,3.31,2.33,4.82,0,1.91-2.04,3.12-1.45,4.14,0,1.38-18.15,3.25-37.18,1.38-49.58-1.38-14.13,5.52-46.03,2.07-78.5,.02-.19,.02-.38,0-.57l-3.19-13.54c-.16-.71-.49-1.37-.94-1.93l-.86-1.08-1.38-6.91v-8.52h-.8v8.47l-.98,7.13-1.22,1.38c-.39,.43-.65,.95-.76,1.52Z" style="fill:#e0e0e0;"></path><path d="M442.52,194.32l-2.29,12.29c0,.11,0,.21,0,.32-3.43,40.23-4.43,83.78-3.85,129.52,1.38-2.76,2.6-2.27,3.85,0,1.71,2.24,3.31,2.33,4.82,0,1.91-2.04,3.12-1.45,4.14,0,1.38-18.15,3.25-37.18,1.38-49.58-1.38-14.13,5.52-46.03,2.07-78.5,.02-.19,.02-.38,0-.57l-3.19-13.54c-.17-.7-.48-1.36-.93-1.93l-.86-1.08-1.38-6.91v-8.52h-.8v8.47l-.84,7.13-1.22,1.38c-.43,.42-.75,.94-.91,1.52Z" style="fill:#e0e0e0;"></path><path d="M409.74,194.32l-2.35,12.29v.32c-6.06,20.57-2.54,41.56-1.68,62.32,.9,22.1-2.76,43.84-2.15,67.21,1.38-.87,2.61-1.3,3.85,0,1.82,1.27,3.4,1.68,4.81,0,1.85,0,3.11-.88,4.14,0,1.38-18.15,3.23-37.18,1.38-49.58-.26-2.53,7.35-1.85,7.51-5.41,.8-16.38-2.61-46.43-5.44-73.09,0-.19-.02-.38-.07-.57l-3.18-13.54c-.16-.71-.49-1.37-.94-1.93l-.86-1.08-1.38-6.91v-8.52h-.8v8.47l-.84,7.13-1.22,1.38c-.4,.42-.67,.95-.79,1.52Z" style="fill:#e0e0e0;"></path></g><g><rect x="175.19" y="93.11" width="73.35" height="93.42" style="fill:#e6e6e6;"></rect><rect x="180.14" y="99.42" width="63.44" height="80.8" style="fill:#fafafa;"></rect><circle cx="211.33" cy="125.16" r="6.85" style="fill:#e0e0e0;"></circle><polygon points="211.87 134.85 226.78 134.85 219.32 147.76 211.87 160.68 204.41 147.76 196.95 134.85 211.87 134.85" style="fill:#e0e0e0;"></polygon></g><g><rect x="267.91" y="64.41" width="71.87" height="91.53" style="fill:#e6e6e6;"></rect><rect x="272.76" y="70.59" width="62.17" height="79.17" style="fill:#fafafa;"></rect><path d="M310.03,95.81c0,3.71-3,6.71-6.71,6.71s-6.71-3-6.71-6.71,3-6.71,6.71-6.71,6.71,3,6.71,6.71Z" style="fill:#e0e0e0;"></path><polygon points="303.84 130.62 289.23 130.62 296.54 117.96 303.84 105.31 311.15 117.96 318.46 130.62 303.84 130.62" style="fill:#e0e0e0;"></polygon></g><circle cx="131.81" cy="163.18" r="3.01" style="fill:#e0e0e0;"></circle><circle cx="60.46" cy="163.18" r="3.01" style="fill:#e0e0e0;"></circle></g><g id="freepik--Shadow--inject-141"><path d="M468.75,448.39c0,3.39-97.94,6.13-218.75,6.13s-218.75-2.75-218.75-6.13,97.94-6.13,218.75-6.13,218.75,2.75,218.75,6.13Z" style="fill:#f5f5f5;"></path></g><g id="freepik--Shelf_2--inject-141"><g><rect x="352.7" y="137.04" width="118.71" height="10.86" style="fill:#263238;"></rect><g><path d="M371.39,118.81l-.74-.13c.51-2.86,1.04-5.81,2.17-8.57,.88-2.17,2.55-5.15,5.46-6.98,4.31-2.71,10.45-2.06,14.6,1.54,3.71,3.22,5.74,8.61,5.3,14.07l-.75-.06c.42-5.23-1.51-10.39-5.04-13.45-3.84-3.34-9.74-3.97-13.71-1.47-2.74,1.73-4.32,4.56-5.16,6.63-1.09,2.69-1.62,5.6-2.12,8.42Z" style="fill:#263238;"></path><path d="M401.61,124.55c0,6.9-7.49,12.49-16.72,12.49s-16.72-5.59-16.72-12.49c0-3.05,.81-6.47,3.25-8.64,3.07-2.73,8.33-3.85,13.47-3.85,4.46,0,9.67,.89,12.67,3.02,3.2,2.28,4.05,5.9,4.05,9.47Z" style="fill:#407BFF;"></path><path d="M401.61,124.55c0,6.9-7.49,12.49-16.72,12.49s-16.72-5.59-16.72-12.49c0-3.05,.81-6.47,3.25-8.64,3.07-2.73,8.33-3.85,13.47-3.85,4.46,0,9.67,.89,12.67,3.02,3.2,2.28,4.05,5.9,4.05,9.47Z" style="opacity:.3;"></path><path d="M369.29,120.06s4.88,5.87,15.61,5.97c10.72,.1,15.61-5.97,15.61-5.97,0,0-4.09,8.11-16.49,8.11-9.07,0-14.73-8.11-14.73-8.11Z" style="opacity:.3;"></path><circle cx="384.35" cy="122.77" r="1.35" style="fill:#263238;"></circle></g><g><rect x="422.29" y="113.15" width="36.76" height="23.42" style="fill:#407BFF;"></rect><rect x="419.97" y="110.5" width="41.4" height="9.8" style="fill:#407BFF;"></rect><rect x="422.29" y="120.39" width="36.76" height="2.42" style="opacity:.3;"></rect><rect x="433.64" y="113.6" width="14.07" height="3.55" rx="1.6" ry="1.6" style="opacity:.3;"></rect><g><path d="M463.96,108.38c-1.47-.88-3.14-1.54-4.92-1.97-.56,.07-6.18,.73-8.75-2.19-2.7-3.08-6.52-13.67-12.7-13.05,.04-.07,.09-.13,.13-.2-.04,.05-.09,.09-.13,.13-.19,.22-.33,.46-.44,.71-.32,1.28-.54,2.57-.65,3.86-.29,4.41-.09,10.31,.3,14.71h1.31l.17-9.79c0-2.82,3.06,.46,3.93,3.47,.87,3.01,2.68,6.31,10.84,6.32,9.39,.04,13.34-.27,10.91-2Z" style="fill:#263238;"></path><path d="M463.96,108.38c-1.47-.88-3.14-1.54-4.92-1.97-.56,.07-6.18,.73-8.75-2.19-2.7-3.08-6.52-13.67-12.7-13.05,.04-.07,.09-.13,.13-.2-.04,.05-.09,.09-.13,.13-.19,.22-.33,.46-.44,.71-.32,1.28-.54,2.57-.65,3.86-.29,4.41-.09,10.31,.3,14.71h1.31l.17-9.79c0-2.82,3.06,.46,3.93,3.47,.87,3.01,2.68,6.31,10.84,6.32,9.39,.04,13.34-.27,10.91-2Z" style="opacity:.1;"></path><path d="M448.47,108.38c-1.47-.88-3.14-1.54-4.92-1.97-.56,.07-6.18,.73-8.75-2.19-2.7-3.08-6.52-13.67-12.7-13.05,.04-.07,.09-.13,.13-.2-.04,.05-.09,.09-.13,.13-.19,.22-.33,.46-.44,.71-.32,1.28-.54,2.57-.65,3.86-.29,4.41-.09,10.31,.3,14.71h1.31l.17-9.79c0-2.82,3.06,.46,3.93,3.47,.87,3.01,2.68,6.31,10.84,6.32,9.39,.04,13.34-.27,10.91-2Z" style="fill:#263238;"></path></g></g></g></g><g id="freepik--Shelf_1--inject-141"><g><g><path d="M110.86,108.6l-.75-.04c.03-.54,.05-1.11,.08-1.7,.16-3.86,.37-8.67,2.44-11.9,2.15-3.35,5.79-5.34,10.83-5.93,4.55-.53,9.15,1.4,11.73,4.91,2.82,3.83,3.03,8.9,3.01,13.77h-.75c.02-4.74-.18-9.68-2.86-13.32-2.43-3.3-6.76-5.11-11.04-4.61-4.8,.56-8.26,2.44-10.29,5.59-1.97,3.06-2.16,7.76-2.32,11.53-.02,.59-.05,1.17-.08,1.71Z" style="fill:#263238;"></path><polygon points="143.51 130.85 104.8 130.85 108.79 105.69 140.37 105.69 143.51 130.85" style="fill:#407BFF;"></polygon><path d="M108.79,105.69s4.76,12.53,15.37,12.58c10.61,.04,16.21-12.58,16.21-12.58,0,0-5.2,15.01-16.21,14.79-11.01-.23-15.37-14.79-15.37-14.79Z" style="opacity:.3;"></path><rect x="121.15" y="113.71" width="6.3" height="1.22" style="fill:#263238;"></rect></g><g><rect x="46.67" y="125.52" width="43.32" height="5.14" rx="1.82" ry="1.82" style="fill:#407BFF;"></rect><path d="M45.32,122.21v1.49c.02,1.03,.87,1.84,1.9,1.82h41.14c1.03,.02,1.88-.8,1.9-1.82v-1.49c-.02-1.03-.87-1.85-1.9-1.83H47.19c-1.02,0-1.85,.82-1.87,1.83Z" style="fill:#407BFF;"></path><path d="M45.32,122.21v1.49c.02,1.03,.87,1.84,1.9,1.82h41.14c1.03,.02,1.88-.8,1.9-1.82v-1.49c-.02-1.03-.87-1.85-1.9-1.83H47.19c-1.02,0-1.85,.82-1.87,1.83Z" style="opacity:.3;"></path><path d="M45.45,117.06v1.49c.03,1.04,.89,1.85,1.93,1.82h41.89c1.04,.03,1.9-.79,1.93-1.82h0v-1.49c-.02-1.04-.88-1.86-1.92-1.84H47.38c-1.04-.03-1.9,.79-1.93,1.82h0Z" style="fill:#407BFF;"></path><path d="M46.53,111.91v1.49c0,1.01,.82,1.83,1.84,1.83h39.79c1.01,0,1.84-.82,1.84-1.83v-1.49c0-1.01-.83-1.82-1.84-1.82H48.31c-.99,.03-1.77,.84-1.78,1.82Z" style="fill:#407BFF;"></path><path d="M46.53,111.91v1.49c0,1.01,.82,1.83,1.84,1.83h39.79c1.01,0,1.84-.82,1.84-1.83v-1.49c0-1.01-.83-1.82-1.84-1.82H48.31c-.99,.03-1.77,.84-1.78,1.82Z" style="opacity:.3;"></path><path d="M48.84,106.77v1.49c-.04,.95,.69,1.77,1.64,1.82h35.55c.96-.05,1.69-.87,1.64-1.82v-1.49c.05-.96-.68-1.78-1.64-1.84H50.53c-.96,.03-1.72,.83-1.69,1.8v.04Z" style="fill:#407BFF;"></path></g><rect x="37.11" y="130.47" width="118.71" height="10.86" style="fill:#263238;"></rect></g></g><g id="freepik--Boxes--inject-141"><g><g><rect x="87.57" y="425.56" width="38.56" height="21.05" style="fill:#263238;"></rect><rect x="87.57" y="425.56" width="38.56" height="21.05" style="fill:#fff; opacity:.7;"></rect><rect x="85.14" y="423.19" width="43.43" height="8.81" style="fill:#263238;"></rect><rect x="85.14" y="423.19" width="43.43" height="8.81" style="fill:#fff; opacity:.7;"></rect><rect x="87.57" y="432.07" width="38.56" height="2.17" style="opacity:.3;"></rect><path d="M110.62,429.16h-6.64c-.88,0-1.6-.71-1.6-1.6h0c0-.88,.71-1.6,1.6-1.6h6.64c.88,0,1.6,.71,1.6,1.6h0c0,.88-.71,1.6-1.6,1.6Z" style="opacity:.3;"></path></g><g><rect x="36.96" y="423.19" width="51.63" height="23.42" style="fill:#407BFF;"></rect><rect x="33.7" y="420.55" width="58.16" height="9.8" style="fill:#407BFF;"></rect><rect x="36.96" y="430.43" width="51.63" height="2.42" style="opacity:.3;"></rect><rect x="56.8" y="423.65" width="13.17" height="3.55" rx="1.6" ry="1.6" style="opacity:.3;"></rect></g><g><rect x="36.96" y="395.49" width="51.63" height="25.06" style="fill:#263238;"></rect><rect x="33.7" y="392.66" width="58.16" height="10.49" style="fill:#263238;"></rect><rect x="36.96" y="403.24" width="51.63" height="2.59" style="opacity:.3;"></rect><rect x="56.8" y="395.98" width="13.17" height="3.8" rx="1.6" ry="1.6" style="opacity:.3;"></rect></g></g></g><g id="freepik--Mannequin--inject-141"><g><rect x="417.48" y="282.88" width="6.06" height="152.65" style="fill:#263238;"></rect><rect x="417.48" y="282.88" width="6.06" height="152.65" style="fill:#fff; opacity:.3;"></rect><g><polygon points="395.04 446.61 417.48 431.64 420.5 434.04 400.83 446.61 395.04 446.61" style="fill:#263238;"></polygon><polygon points="395.04 446.61 417.48 431.64 420.5 434.04 400.83 446.61 395.04 446.61" style="fill:#fff; opacity:.3;"></polygon></g><g><polygon points="445.97 446.61 423.53 431.64 420.5 434.04 440.18 446.61 445.97 446.61" style="fill:#263238;"></polygon><polygon points="445.97 446.61 423.53 431.64 420.5 434.04 440.18 446.61 445.97 446.61" style="fill:#fff; opacity:.3;"></polygon></g><g><path d="M389.24,225.09c-.6-3.72,1.71-7.27,5.36-8.2,6.37-1.61,16.83-4.47,18.1-6.16,1.84-2.45,3.07-14.11,3.07-14.11l7.36,1.23v103.36h-29.14s.31-6.75,2.76-15.34c2.45-8.59,6.75-17.48,6.75-17.48,0,0-11.97-29.25-14.25-43.3Z" style="fill:#407BFF;"></path><path d="M452.9,225.09c.6-3.72-1.71-7.27-5.36-8.2-6.37-1.61-16.83-4.47-18.1-6.16-1.84-2.45-3.07-14.11-3.07-14.11l-7.36,1.23v103.36h29.14s-.31-6.75-2.76-15.34c-2.45-8.59-6.75-17.48-6.75-17.48,0,0,11.97-29.25,14.25-43.3Z" style="fill:#407BFF;"></path><ellipse cx="421.59" cy="188.74" rx="7.76" ry="15.15" style="opacity:.2;"></ellipse><ellipse cx="421.59" cy="183.13" rx="14.42" ry="17.79" style="fill:#407BFF;"></ellipse></g><path d="M393.62,241.55s11.31-14.3,27.97,0c0,0,16.81-15.58,26.4,1.63l-7.97,25.72s13.8,33.83,12.98,60.25l3.38,76.78h-11.53l-4.02-61.57-2.69,61.57h-46.56s-.88-96.79,4.29-116.69c4.02-15.47,6.46-20.34,6.46-20.34l-8.71-27.35Z" style="fill:#263238;"></path></g></g><g id="freepik--Clothes--inject-141"><g><g><g><path d="M88.93,187.65H37.98c-.69,0-1.29-.45-1.48-1.11-.19-.67,.08-1.36,.67-1.73l25.2-15.67,27.31,15.75c.59,.34,.87,1.01,.69,1.66-.18,.66-.75,1.1-1.43,1.1Zm-51.24-1.99c-.32,.2-.26,.51-.23,.6s.14,.39,.52,.39h50.95c.34,0,.44-.27,.46-.36s.07-.37-.22-.54l-26.79-15.45-24.69,15.35Z" style="fill:#263238;"></path><path d="M62.56,170.23c-.05,0-.1,0-.15-.02-.26-.09-.41-.37-.32-.63,.58-1.77,.86-3.61,.84-5.48,0-.8-.09-1.81-.61-2.52-.35-.49-.94-.81-1.62-.88-.71-.08-1.4,.12-1.88,.54-.98,.86-1.1,2.59-.25,3.63,.17,.21,.14,.53-.07,.7-.21,.18-.53,.14-.7-.07-1.19-1.45-1.02-3.8,.36-5.01,.69-.61,1.66-.89,2.65-.79,.96,.11,1.8,.58,2.32,1.29,.68,.94,.79,2.15,.8,3.1,.02,1.97-.27,3.92-.89,5.8-.07,.21-.27,.35-.48,.35Z" style="fill:#263238;"></path></g><path d="M48.79,176.56l14.1,19.56,11.16-20.45,15.77,9.09,6.4,11.15-9.15,4.74-2.94,18.13,2.94,26.4c-15.02,4.14-29.85,4.25-44.47,0l2.43-26.09-2.43-15.44-11.96-4.46,4.12-12.62,14.02-10.02Z" style="fill:#407BFF;"></path><polygon points="42.6 203.66 39.62 193.32 39.62 202.55 42.6 203.66" style="opacity:.3;"></polygon><polygon points="87.07 200.65 88.24 190.45 89.85 199.21 87.07 200.65" style="opacity:.3;"></polygon></g><path d="M55.3,231.48s16.54-8.84,20.67-17.64c0,0-3.92,17.74-20.67,17.64Z" style="opacity:.3;"></path></g><g><g><path d="M160.28,187.65h-50.95c-.69,0-1.29-.45-1.48-1.11-.19-.67,.08-1.36,.67-1.73l25.2-15.67,27.31,15.75c.59,.34,.87,1.01,.69,1.67-.18,.66-.75,1.1-1.43,1.1Zm-51.24-1.99h0c-.32,.2-.26,.51-.23,.6s.14,.39,.52,.39h50.95c.34,0,.44-.27,.46-.36s.07-.37-.22-.54l-26.79-15.45-24.69,15.35Z" style="fill:#263238;"></path><path d="M133.91,170.23c-.05,0-.1,0-.15-.02-.26-.09-.41-.37-.32-.63,.58-1.77,.86-3.62,.84-5.48,0-.8-.09-1.81-.61-2.52-.35-.49-.94-.81-1.62-.88-.71-.08-1.4,.12-1.88,.54-.98,.86-1.1,2.59-.25,3.63,.17,.21,.14,.53-.07,.7-.21,.18-.53,.14-.7-.07-1.19-1.45-1.02-3.8,.36-5.01,.69-.61,1.66-.89,2.65-.79,.96,.11,1.8,.58,2.32,1.29,.68,.94,.79,2.15,.8,3.1,.02,1.97-.27,3.92-.89,5.8-.07,.21-.26,.35-.48,.35Z" style="fill:#263238;"></path></g><g><polygon points="120.28 177.33 117.26 179.12 119.46 197.18 120.82 196.81 120.28 177.33" style="fill:#263238;"></polygon><polygon points="148.16 177.4 150.47 178.72 145.97 196.48 144.9 196.09 147.94 177.76 148.16 177.4" style="fill:#263238;"></polygon><path d="M89.85,320.26c6.28,8.62,12.62,11.55,18.57,12.12,6.72-.22,11.93-4.98,17.2-12.12,1.29-2.18,3.39-2.71,3.93,0l1.16,3.28c.23,.62,.92,.94,1.55,.7,.36-.13,.63-.43,.74-.8l.82-3.15c.25-1.27,1.48-2.09,2.74-1.84,.93,.18,1.66,.91,1.84,1.84l.98,5.16c1.53,4.16,5.83,10.22,15.29,9.92,6.55,.08,11.36-7.73,16.22-15.07l-23.25-93.35-28.56-.93-29.23,94.25Z" style="fill:#407BFF;"></path><path d="M137.43,318.89c-.61-.51-1.43-.66-2.18-.42v-53.09l2.18,53.51Z" style="isolation:isolate; opacity:.2;"></path><path d="M109.8,198.86l8.36-4c2.05-.99,4.46-.87,6.4,.31l8.86,5.33,7.3-4.55c2.64-1.64,5.95-1.73,8.68-.25l8.25,4.48-8.8,30.92-4.9,2.06c-1.27,.53-2.71,.43-3.9-.27l-5.34-3.59c-1.14-.76-2.63-.73-3.74,.07l-3.51,2.54c-1.4,1.01-3.18,1.34-4.85,.92l-5.31-1.37-7.49-32.59Z" style="fill:#407BFF;"></path></g><path d="M117.29,231.45l-1.45-6.3c11.76,2.1,23.26,2.48,34.44,.86l-1.16,6.85s-15.75,3.54-31-1.38" style="fill:#263238;"></path><g style="isolation:isolate; opacity:.2;"><path d="M119.41,216.4c2.12,1.2,4.64,1.67,7.06,1.33,2.41-.34,4.7-1.49,6.42-3.23-.32,2.7-2.87,4.79-5.57,5.12s-5.41-.83-7.5-2.58"></path></g></g></g><g id="freepik--Character--inject-141"><g><g><g><path d="M281.56,202.55c-3.16-.28-9.53,5.26-11.23,6.99-1.7,1.73-15.15,7.57-15.15,7.57l-14.94-17.59-5.93,3.21s13.14,26.67,14.49,28.18c1.35,1.51,3.56,1.7,7.59,1.13,4.03-.57,26.73-15.85,26.17-16.04-.57-.19-.98-13.45-.98-13.45Z" style="fill:#b97964;"></path><path d="M240.33,200.43s1.78-2.24,1.48-4.58c-.3-2.35,.09-4.3-.25-6.03-.34-1.73-1.52,.34-1.92,1.56-.4,1.23-.87,2.61-1.75,2.16-.87-.45-5.44-7.56-6.72-8.05-1.28-.49-.9,.89-.9,.89,0,0-1.16-1.7-1.95-1.42-.21,.07-.57,.57-.17,1.43,.91,1.92,3.04,5.87,3.04,5.87-.12-.23-3.09-4.91-3.62-5.55-.7-.84-1.46-.88-1.93-.46-.67,.6,2.81,6.52,2.78,6.88,0,0-1.89-3.48-3.06-3.48s-.09,2.25,1.23,4.06c1.21,1.66,3.15,5.23,4.55,6.79,1.72,1.93,3.31,2.84,5.62,2.12,2.31-.72,3.57-2.19,3.57-2.19Z" style="fill:#b97964;"></path></g><path d="M230.3,195.36c-.08,0-.15-.04-.2-.1-.08-.11-.06-.27,.05-.35,1.54-1.12,3.19-2.1,4.92-2.89,.12-.06,.27,0,.33,.12,.06,.13,0,.27-.12,.33-1.7,.78-3.33,1.74-4.84,2.84-.04,.03-.1,.05-.15,.05Z" style="opacity:.3;"></path><path d="M235.65,199.12s-.03,0-.04,0c-.14-.02-.23-.15-.21-.29,.26-1.6,1.24-3.08,2.61-3.96,.12-.07,.27-.04,.35,.08,.07,.12,.04,.27-.08,.35-1.25,.8-2.14,2.15-2.38,3.62-.02,.12-.13,.21-.25,.21Z" style="opacity:.3;"></path></g><g><path d="M286.4,163.84l8.9-5.1c-4.93-4.36-10.74-3.32-14.51,.13-2.2,2.02-1.73,3.87-3.27,4.99-1.78,1.29-3.7,1.99-5.13,3.78-2.11,2.65-.82,7.18-2.33,10.35-.92,1.93-2.84,3.28-3.02,5.48-.17,2.1,1.39,4.01,1.19,6.11-.11,1.14-.74,2.32-.32,3.36,.35,.88,1.28,1.18,2.09,1.35,5.81,1.18,11.89,.55,17.43-1.82,.53-.23,1.11-.52,1.35-1.13,.17-.43,.13-.94,.08-1.41-.83-8.69-1.65-17.38-2.48-26.08Z" style="fill:#263238;"></path><path d="M297.41,164.2l-4.6-4.76c2.81-1.92,6.64-1.52,9.12,.95,1.38,1.37,2.35,3.3,3.89,4.41,1.78,1.29,4.17,1.4,5.59,3.2,2.11,2.65,.82,7.18,2.33,10.35,.92,1.93,2.84,3.28,3.02,5.48,.17,2.1-1.39,4.01-1.19,6.11,.11,1.14,.74,2.32,.32,3.36-.35,.88-1.28,1.18-2.09,1.35-5.81,1.18-11.89,.55-17.43-1.82-.53-.23-1.11-.52-1.35-1.13-.17-.43-.13-.94-.08-1.41,.83-8.69,1.65-17.39,2.48-26.08Z" style="fill:#263238;"></path><g><g><g><path d="M302.75,201.59s-3.5,1.72-7.81,5.44c-.9,.77-1.89,1.44-2.94,2-2.83,1.5-5.4,2.36-6.1,1-.16-.3-.27-.62-.36-.96-.59-2.28-.35-5.49,1.5-6.96,2.08-1.66,3.08-3.07,2.71-5.31-.2-1.27-.66-2.58-1.19-3.86l2.4-1.44,8.56-8.64c-.98,5.3-1.27,15.6,3.24,18.74Z" style="fill:#b97964;"></path><path d="M289.81,197.28c2.35-1.4,4.94-3.82,4.63-6.59-.14-1.17-.39-2.27-.67-2.98l-4.78,6.33c.39,1.02,.54,1.7,.82,3.24Z" style="opacity:.2;"></path><path d="M301.16,173.11c-.81,8.8-.96,12.52-5.5,17.14-6.83,6.94-17.33,4.6-19.14-4.11-1.63-7.85-.04-20.91,8.6-24.61,8.51-3.64,16.85,2.79,16.04,11.59Z" style="fill:#b97964;"></path><path d="M289.77,175.98c-.04,.93-.55,1.69-1.13,1.71-.58,.01-1.01-.73-.97-1.66,.04-.93,.55-1.69,1.13-1.71,.58-.01,1.01,.73,.97,1.66Z" style="fill:#263238;"></path><path d="M281.1,175.95c-.04,.9-.55,1.64-1.12,1.65-.58,.01-1.01-.71-.96-1.61,.04-.9,.55-1.64,1.12-1.65,.58-.01,1.01,.71,.96,1.61Z" style="fill:#263238;"></path><path d="M291.61,172.74c-.11,.01-.23-.02-.31-.1-1.35-1.25-2.88-.81-2.9-.81-.23,.07-.45-.06-.51-.29-.05-.23,.09-.47,.32-.54,.08-.02,1.99-.58,3.68,.98,.17,.16,.17,.43,0,.61-.08,.09-.18,.14-.29,.15Z" style="fill:#263238;"></path><path d="M278.18,171.54c-.09-.03-.16-.1-.2-.19-.08-.2,.02-.45,.22-.56,2.01-1.13,3.5-.27,3.56-.23,.18,.11,.22,.35,.09,.56-.12,.2-.37,.28-.54,.18-.06-.03-1.22-.68-2.82,.22-.1,.06-.21,.07-.31,.04Z" style="fill:#263238;"></path><path d="M283.46,175.52s-1.38,3.29-2.93,5.34c-.27,.36-.1,.88,.32,1.04,1.09,.4,2.36,.04,2.36,.04l.25-6.42Z" style="fill:#a24e3f;"></path></g><path d="M289.13,174.35l-2.02-.48s1.1,1.51,2.02,.48Z" style="fill:#263238;"></path><path d="M280.34,174.36l-2.02-.48s1.1,1.51,2.02,.48Z" style="fill:#263238;"></path><path d="M298.11,176.15s-4.54-6.83-4.3-12.36c0,0-8.68-2.26-15.61,6.99-1.1,1.47-1.76,3.93-2.75,6.05,0,0,.37-17.48,15.22-18.85,14.83-1.37,23.26,21.83,8.48,27.23,0,0,1.77-4.79-1.04-9.06Z" style="fill:#263238;"></path><path d="M303.82,180.28c-1.04,1.8-2.73,2.94-4.27,3.32-2.33,.58-3.53-3.16-2.74-5.49,.72-2.1,3-3.49,5.27-3.03,2.23,.45,2.93,3.14,1.74,5.2Z" style="fill:#b97964;"></path></g><path d="M298.91,180.06h-.02c-.14,0-.24-.13-.23-.27,.06-.9,.48-1.76,1.16-2.36,.68-.6,1.59-.9,2.49-.85,.14,0,.24,.13,.23,.27,0,.14-.12,.25-.26,.23-.76-.05-1.55,.22-2.13,.73-.58,.51-.94,1.25-1,2.02,0,.13-.12,.23-.25,.23Z" style="opacity:.2;"></path><path d="M286.02,184.85c-.25,0-.52-.03-.81-.09-.13-.03-.22-.16-.19-.29s.15-.23,.3-.19c2.35,.48,3.14-1.54,3.18-1.62,.05-.13,.19-.19,.32-.15,.13,.05,.2,.19,.15,.32,0,.02-.77,2.03-2.94,2.03Z" style="fill:#263238;"></path></g><path d="M303.28,183.89c0,.99-.8,1.79-1.79,1.79s-1.79-.8-1.79-1.79,.8-1.79,1.79-1.79,1.79,.8,1.79,1.79Z" style="fill:#407BFF;"></path></g><g><path d="M362.19,332.31c-7.14-1.61-14.57-.81-21.8,.31-13.72,2.13-27.4,5.47-39.94,11.64-15.2,2.1-36.35,2.15-40.31,8.13,39.24,16.74,85.64-1.15,103.42-12.46,1.46-.93,3.07-2.25,2.98-4.04-.11-2.07-2.4-3.15-4.34-3.59Z" style="fill:#407BFF;"></path><g style="opacity:.2;"><path d="M362.19,332.31c-7.14-1.61-14.57-.81-21.8,.31-13.72,2.13-27.4,5.47-39.94,11.64-15.2,2.1-36.35,2.15-40.31,8.13,39.24,16.74,85.64-1.15,103.42-12.46,1.46-.93,3.07-2.25,2.98-4.04-.11-2.07-2.4-3.15-4.34-3.59Z"></path></g></g><path d="M318.24,209.12s2.93,1.14,5.16,7.43c1.54,4.34,9.4,29.1,9.78,33.21,.59,6.42-2.74,42.46-2.74,42.46l-6.49-.7s-2.31-38.85-2.4-39.26c-.09-.4-11.24-30.12-11.24-30.12l7.93-13.02Z" style="fill:#b97964;"></path><g><path d="M327.29,368.88c-1.44-5.13-4.89-10.72-5.62-14.87-.65-3.6,.2-6.05-.31-14.35-.59-10.04-2.2-23.37-6.39-33.22,0,0,8.16-12.78,.03-26.81l-5.43-8.91-29.85,.18,22.98,82.87,24.25,69.68,8.37-1.19c-.83-14.91-4.19-38.55-8.02-53.38Z" style="fill:#b97964;"></path><path d="M321.21,333.81l-20.93,5.73-.77,2.87,.8,2.76,.87,3.12s4.44-1.55,9.04-3.01c4.6-1.46,11.25-3.45,11.25-3.45l-.26-8.02Z" style="opacity:.2;"></path><g><path d="M323.95,444.84c.78-1.15,1.78-2.21,2.94-3.13h0s2.59-4.71,.53-14.42l4.68-3.34c1.62-1.11,3.7-1.4,5.22-.72,.21,.1,.4,.22,.56,.37,.67,.82,1.27,1.69,1.79,2.6,1.72,3.12,3.19,6.36,4.4,9.71l-.96,.45-3.07-5.96c-.96-2.06-2.08,1.38-1.69,3.88,.39,2.5,.2,5.52-5.76,8.31-6.84,3.23-9.84,4.35-8.65,2.26Z"></path><path d="M326.29,420.65s1.35,7.59,1.54,12.9c.29,2.65-.05,5.43-1,8.19,0,0,4.76-1.43,5.68-4.6s.1-12.21,4.83-13.87c-.61-.42-1.29-.76-2.03-1.01l-.53-2.78c-2.52,.34-8.49,1.17-8.49,1.17Z" style="fill:#b97964;"></path></g></g><path d="M312.43,223.98l7.35-15.35c-3.31-4.95-19.71-8.75-19.71-8.75l-10.8,.59s-4.15,.93-7.71,2.09c-4.75,1.55-7.31,2.79-8.44,5.43,0,0-2.27,5.87-.79,17.86,.41,3.31,1.52,22.5-1.5,28.02l.06,1.52c19.74,15.37,36.44,12.8,36.44,12.8-.89-2.71-.8-11.66-1.2-14.32,.29-3.38,.17-5.96,1.6-11.89,.28-1.14,4.23-16.88,4.71-17.99Z" style="fill:#b97964;"></path><g><path d="M267.04,278.74l-3.23,75.51,2.59,73.18,9.1,2.34c4.03-14.46,7.3-42.88,8.24-57.7,.22-5.08-1.42-10.94-.85-14.95,.5-3.52,2.14-5.74,4.29-13.73,2.6-9.66,5.23-22.58,4.18-32.59,0,0,12.23-10.98,8.61-25.56l-32.92-6.51Z" style="fill:#b97964;"></path><path d="M263.81,354.25s3.55-3.38,10.08-2.39,9.62,2.63,9.62,2.63l1.77-4.93-14.96-4.24-6.51,3.22v5.72Z" style="opacity:.2;"></path><g><path d="M254.94,444.64c1.19-.71,2.55-1.25,3.99-1.59h0s4.35-3.16,6.59-12.84l5.66-1.04c1.94-.32,3.95,.3,5.03,1.56,.15,.18,.27,.37,.35,.57,.26,1.03,.43,2.07,.52,3.11,.23,3.55,.19,7.11-.13,10.66h-1.06l-.25-6.7c0-2.28-2.47,.37-3.17,2.8s-2.16,5.08-8.74,5.08c-7.57,.03-10.76-.23-8.79-1.63Z"></path><path d="M266.6,426.74s-1.28,4.42-3.36,9.32c-.86,2.52-2.34,4.89-4.38,6.99,0,0,4.92,.72,7.1-1.75,2.18-2.48,5.27-11.02,10.25-10.51-.37-.63-.85-1.23-1.41-1.78-.81-.9-8.21-2.26-8.21-2.26Z" style="fill:#b97964;"></path></g></g><path d="M324.32,291.39s-2.6,1.18-3.41,3.4c-.81,2.22-2.04,3.78-2.53,5.48-.49,1.69,1.51,.39,2.42-.51,.92-.91,1.97-1.93,2.54-1.13,.57,.8,1.4,9.21,2.31,10.23,.92,1.02,1.21-.38,1.21-.38,0,0,.26,2.04,1.09,2.15,.22,.03,.77-.25,.8-1.2,.07-2.13-.03-6.6-.03-6.6,0,.26,.51,5.77,.69,6.59,.24,1.07,.9,1.45,1.51,1.29,.87-.23,.47-7.09,.66-7.39,0,0,.1,3.96,1.13,4.49,1.04,.53,1.11-1.96,.76-4.17-.32-2.03-.43-6.09-.95-8.12-.65-2.5-1.65-4.03-4.04-4.45-2.39-.41-4.17,.32-4.17,.32Z" style="fill:#b97964;"></path><g><g><path d="M263.65,278.46c-4.1,20.33-4.15,56.31-3.51,73.93,0,0,8.96-7.81,23.31-2.57s20.47,5.34,27.7,3.05c7.22-2.29,12.89-13.72,33.73-17.72,20.84-4,21.63,.53,21.63,.53,0,0,2.5-5.19-7.92-8.82-10.42-3.62-22.9-16.06-28.93-23.97-6.03-7.91-17.36-31.6-20.35-37.68-3.16-6.41-2.96-13.45-2.96-13.45l-34.35-3.29s-5.06,13.74-8.34,29.99Z" style="fill:#263238;"></path><path d="M303.28,200.71l-4.81,3.86c-5.21,4.18-12.33,2.7-16.41-2.58-5.17,1.31-7.64,2.13-7.64,2.13,0,0-3.57,9.73-2.09,21.72,.41,3.31,1.52,22.5-1.5,28.02l.06,1.52c19.74,15.37,36.44,12.8,36.44,12.8-.89-2.71-.69-12.13-1.09-14.78,.29-3.38,.06-5.49,1.49-11.42,.28-1.14,5.26-15.9,5.74-17.01l6.09-17.02c-4.51-4.58-16.28-7.23-16.28-7.23Z" style="fill:#263238;"></path><polygon points="270.47 253.71 306.89 256.78 306.9 249.71 272.41 246.75 270.47 253.71" style="fill:#407BFF;"></polygon></g><path d="M259.84,213.57l7.58,15.16,6.5-4.15,4.41-21.1s-3.97-.03-7.2,2.43c-3.05,2.32-11.29,7.66-11.29,7.66Z" style="fill:#263238;"></path><path d="M272.3,225.6s-.52-4.67-.25-8.89l.28-4.22s-3.02,9.98-2.61,14.77l2.59-1.66Z" style="opacity:.2;"></path><path d="M310.63,224.95l3.38,11.94,14.25-8.82s-4.96-19.96-9.76-20.56c-4.8-.6-7.88,17.44-7.88,17.44Z" style="fill:#263238;"></path><polygon points="311.89 229.39 314.68 219.37 313.23 234.1 311.89 229.39" style="opacity:.2;"></polygon></g></g></g><g id="freepik--Counter--inject-141"><g><g><rect x="191.17" y="293.29" width="182.36" height="153.32" style="fill:#407BFF;"></rect><rect x="191.17" y="293.29" width="182.36" height="153.32" style="opacity:.2;"></rect><g><g><polygon points="196.98 285.88 204.78 237.52 239.52 237.52 248.26 285.38 196.98 285.88" style="fill:#407BFF;"></polygon><polygon points="196.98 285.88 204.78 237.52 239.52 237.52 248.26 285.38 196.98 285.88" style="fill:#fff; isolation:isolate; opacity:.3;"></polygon><polygon points="234.62 285.26 248.26 285.38 239.52 237.52 234.62 285.26" style="opacity:.3;"></polygon><path d="M215.33,240.96c0,.87-.71,1.58-1.58,1.58s-1.58-.71-1.58-1.58,.71-1.58,1.58-1.58,1.58,.71,1.58,1.58Z" style="fill:#263238;"></path><path d="M230.58,240.96c0,.87-.71,1.58-1.58,1.58s-1.58-.71-1.58-1.58,.71-1.58,1.58-1.58,1.58,.71,1.58,1.58Z" style="fill:#263238;"></path><path d="M214.02,240.45c0-2.63,.01-5.4,1.42-7.72s3.95-3.29,6.6-3.29,5.02,.97,6.02,3.54,.41,5.26,.43,7.87c0,.48,.75,.48,.75,0-.02-2.4,.43-4.86-.18-7.22-.49-1.87-1.63-3.51-3.44-4.3-3.82-1.65-8.95-.42-11,3.32-1.3,2.38-1.34,5.14-1.34,7.79,0,.48,.75,.48,.75,0h0Z" style="fill:#263238;"></path><polyline points="240.94 282.78 239.52 237.52 234.62 285.26 240.94 282.78" style="opacity:.1;"></polyline></g><polygon points="227.7 261.39 209.28 261.39 210.01 257 228.43 257 227.7 261.39" style="fill:#fff;"></polygon></g><rect x="191.17" y="291.99" width="182.36" height="9.07" style="opacity:.3;"></rect><rect x="182.75" y="284.32" width="196.74" height="10.15" style="fill:#407BFF;"></rect><rect x="182.75" y="284.32" width="196.74" height="10.15" style="opacity:0;"></rect></g><g><g><rect x="260.49" y="347.22" width="35.89" height="22.86" style="fill:#263238;"></rect><rect x="260.49" y="347.22" width="35.89" height="22.86" style="fill:#fff; opacity:.3;"></rect><rect x="258.22" y="344.64" width="40.42" height="9.57" style="fill:#263238;"></rect><rect x="258.22" y="344.64" width="40.42" height="9.57" style="fill:#fff; opacity:.3;"></rect><rect x="260.49" y="354.29" width="35.89" height="2.36" style="opacity:.3;"></rect><rect x="271.56" y="347.67" width="13.74" height="3.47" rx="1.13" ry="1.13" style="opacity:.3;"></rect></g><rect x="149.75" y="369.95" width="157.49" height="76.66" style="fill:#263238;"></rect><g><path d="M170.51,347.7l-.75-.04c.03-.54,.05-1.12,.08-1.71,.16-3.86,.37-8.67,2.44-11.9,2.15-3.35,5.79-5.34,10.83-5.93,4.55-.53,9.15,1.4,11.73,4.91,2.82,3.83,3.03,8.9,3,13.77h-.75c.02-4.74-.18-9.67-2.86-13.32-2.43-3.3-6.76-5.11-11.04-4.61-4.8,.56-8.26,2.44-10.29,5.59-1.97,3.06-2.16,7.76-2.32,11.53-.03,.59-.05,1.17-.08,1.71Z" style="fill:#263238;"></path><polygon points="203.16 369.95 164.45 369.95 168.43 344.79 200.01 344.79 203.16 369.95" style="fill:#407BFF;"></polygon><path d="M168.43,344.79s4.76,12.53,15.37,12.58,16.21-12.58,16.21-12.58c0,0-5.2,15.01-16.21,14.79-11.01-.23-15.37-14.79-15.37-14.79Z" style="opacity:.3;"></path><rect x="180.79" y="352.81" width="6.3" height="1.22" style="fill:#263238;"></rect></g><g><path d="M252.27,367.85c-1.32-.79-2.82-1.39-4.43-1.77-.5,.07-5.56,.66-7.87-1.97-2.43-2.77-5.87-12.3-11.43-11.74,.04-.06,.08-.12,.12-.18-.04,.04-.08,.08-.12,.12-.17,.2-.3,.41-.39,.64-.29,1.15-.48,2.31-.58,3.47-.26,3.97-.08,9.28,.27,13.24h1.18l.16-8.81c0-2.54,2.75,.41,3.54,3.12,.78,2.71,2.41,5.68,9.75,5.69,8.45,.04,12-.24,9.82-1.8Z" style="fill:#407BFF;"></path><path d="M252.27,367.85c-1.32-.79-2.82-1.39-4.43-1.77-.5,.07-5.56,.66-7.87-1.97-2.43-2.77-5.87-12.3-11.43-11.74,.04-.06,.08-.12,.12-.18-.04,.04-.08,.08-.12,.12-.17,.2-.3,.41-.39,.64-.29,1.15-.48,2.31-.58,3.47-.26,3.97-.08,9.28,.27,13.24h1.18l.16-8.81c0-2.54,2.75,.41,3.54,3.12,.78,2.71,2.41,5.68,9.75,5.69,8.45,.04,12-.24,9.82-1.8Z" style="opacity:.1;"></path><path d="M238.33,367.85c-1.32-.79-2.82-1.39-4.43-1.77-.5,.07-5.56,.66-7.87-1.97-2.43-2.77-5.87-12.3-11.43-11.74,.04-.06,.08-.12,.12-.18-.04,.04-.08,.08-.12,.12-.17,.2-.3,.41-.39,.64-.29,1.15-.48,2.31-.58,3.47-.26,3.97-.08,9.28,.27,13.24h1.18l.16-8.81c0-2.54,2.75,.41,3.54,3.12,.78,2.71,2.41,5.68,9.75,5.69,8.45,.04,12-.24,9.82-1.8Z" style="fill:#407BFF;"></path></g></g></g></g></svg>
