<svg xmlns="http://www.w3.org/2000/svg" viewBox="0 0 500 500"><g id="freepik--background-complete--inject-108"><path d="M130.68,115.08l-90.52-.14s4.51-5.86,9.47-6.58c0,0,9.7-28.72,25.85-28.9,15-.16,21,17.7,21,17.7s7-8,13.61-4.32S120.5,107,120.5,107,128,111,130.68,115.08Z" style="fill:#ebebeb"></path><path d="M339.84,115.54l114.47.17s0-7.31-15.76-8.77c0,0-14.34-32-36.33-27.73-13.7,2.66-20.72,21.44-20.72,21.44s-10.32-14.8-18.6-12-13.22,18.58-13.22,18.58S341.14,111.41,339.84,115.54Z" style="fill:#ebebeb"></path><path d="M138.55,70.9l77.83.12s-7.33-6.85-10.59-6.86-12.76-23-24.94-22-18.66,18-18.66,18S147.4,55.53,138.55,70.9Z" style="fill:#ebebeb"></path><path d="M393.28,196.59l66.56.1s-3.3-4.32-6.95-4.86c0,0-7.06-21.14-18.94-21.31-11.05-.15-15.5,13-15.5,13s-5.1-5.9-10-3.21-7.67,10.39-7.67,10.39S395.28,193.63,393.28,196.59Z" style="fill:#ebebeb"></path></g><g id="freepik--Floor--inject-108"><rect x="44.92" y="439.07" width="410.1" height="6.9" style="fill:#c7c7c7"></rect><path d="M66,439.07A12.19,12.19,0,0,1,66,446a12.19,12.19,0,0,1,0-6.91Z" style="fill:#263238"></path><path d="M90.54,439.07a12.19,12.19,0,0,1,0,6.91,12.19,12.19,0,0,1,0-6.91Z" style="fill:#263238"></path><path d="M115.07,439.07a10.84,10.84,0,0,1,.5,3.45,10.59,10.59,0,0,1-.5,3.46,10.86,10.86,0,0,1-.5-3.46A11.13,11.13,0,0,1,115.07,439.07Z" style="fill:#263238"></path><path d="M139.6,439.07a12.19,12.19,0,0,1,0,6.91,10.59,10.59,0,0,1-.5-3.46A10.84,10.84,0,0,1,139.6,439.07Z" style="fill:#263238"></path><path d="M164.12,439.07a12.19,12.19,0,0,1,0,6.91,12.43,12.43,0,0,1,0-6.91Z" style="fill:#263238"></path><path d="M188.65,439.07a10.84,10.84,0,0,1,.5,3.45,10.59,10.59,0,0,1-.5,3.46,12.19,12.19,0,0,1,0-6.91Z" style="fill:#263238"></path><path d="M213.18,439.07a11.13,11.13,0,0,1,.5,3.45,10.86,10.86,0,0,1-.5,3.46,10.59,10.59,0,0,1-.5-3.46A10.84,10.84,0,0,1,213.18,439.07Z" style="fill:#263238"></path><path d="M237.71,439.07a12.19,12.19,0,0,1,0,6.91,12.19,12.19,0,0,1,0-6.91Z" style="fill:#263238"></path><path d="M262.23,439.07a12.19,12.19,0,0,1,0,6.91,12.19,12.19,0,0,1,0-6.91Z" style="fill:#263238"></path><path d="M286.76,439.07a11.13,11.13,0,0,1,.5,3.45,10.86,10.86,0,0,1-.5,3.46,10.59,10.59,0,0,1-.5-3.46A10.84,10.84,0,0,1,286.76,439.07Z" style="fill:#263238"></path><path d="M311.29,439.07a12.19,12.19,0,0,1,0,6.91,12.19,12.19,0,0,1,0-6.91Z" style="fill:#263238"></path><path d="M335.81,439.07a12.19,12.19,0,0,1,0,6.91,12.19,12.19,0,0,1,0-6.91Z" style="fill:#263238"></path><path d="M360.34,439.07a11.13,11.13,0,0,1,.5,3.45,10.86,10.86,0,0,1-.5,3.46,10.59,10.59,0,0,1-.5-3.46A11.13,11.13,0,0,1,360.34,439.07Z" style="fill:#263238"></path><path d="M384.87,439.07a12.19,12.19,0,0,1,0,6.91,12.19,12.19,0,0,1,0-6.91Z" style="fill:#263238"></path><path d="M409.39,439.07a12.19,12.19,0,0,1,0,6.91,12.19,12.19,0,0,1,0-6.91Z" style="fill:#263238"></path><path d="M433.92,439.07a11.13,11.13,0,0,1,.5,3.45,10.59,10.59,0,0,1-.5,3.46,10.59,10.59,0,0,1-.5-3.46A11.13,11.13,0,0,1,433.92,439.07Z" style="fill:#263238"></path><polygon points="40.16 446.06 92.62 445.81 145.08 445.72 250 445.56 354.92 445.72 407.38 445.81 459.84 446.06 407.38 446.3 354.92 446.39 250 446.55 145.08 446.39 92.62 446.3 40.16 446.06" style="fill:#263238"></polygon></g><g id="freepik--Store--inject-108"><rect x="56.69" y="135.36" width="386.62" height="303.72" style="fill:#FFC727"></rect><polygon points="443.31 150.31 56.69 153.44 56.69 135.36 443.31 135.36 443.31 150.31" style="opacity:0.1"></polygon><g style="opacity:0.1"><rect x="79.91" y="399.41" width="16.89" height="7.14"></rect><rect x="70.49" y="408.41" width="16.89" height="7.14"></rect><rect x="237.82" y="399.41" width="16.89" height="7.14"></rect><rect x="228.4" y="408.41" width="16.89" height="7.14"></rect><rect x="89.34" y="408.41" width="16.89" height="7.14"></rect><rect x="347.56" y="196.08" width="16.89" height="7.14"></rect><rect x="338.13" y="205.08" width="16.89" height="7.14"></rect><rect x="356.98" y="205.08" width="16.89" height="7.14"></rect><rect x="403.19" y="408.41" width="16.89" height="7.14"></rect><rect x="286.85" y="346.86" width="16.89" height="7.14"></rect><rect x="403.19" y="287.95" width="16.89" height="7.14"></rect><rect x="412.62" y="296.95" width="16.89" height="7.14"></rect><rect x="70.49" y="287.95" width="16.89" height="7.14"></rect><rect x="139.26" y="196.08" width="16.89" height="7.14" transform="translate(295.41 399.3) rotate(180)"></rect><rect x="148.68" y="187.08" width="16.89" height="7.14" transform="translate(314.26 381.3) rotate(180)"></rect></g><rect x="51.29" y="135.41" width="397.42" height="7.11" style="fill:#37474f"></rect><rect x="77.46" y="108.04" width="345.08" height="27.32" style="fill:#37474f"></rect><rect x="86.53" y="112.93" width="6.35" height="17.84" style="fill:#263238"></rect><rect x="103.4" y="112.93" width="6.35" height="17.84" style="fill:#263238"></rect><rect x="120.27" y="112.93" width="6.35" height="17.84" style="fill:#263238"></rect><rect x="137.15" y="112.93" width="6.35" height="17.84" style="fill:#263238"></rect><rect x="154.02" y="112.93" width="6.35" height="17.84" style="fill:#263238"></rect><rect x="170.89" y="112.93" width="6.35" height="17.84" style="fill:#263238"></rect><rect x="187.77" y="112.93" width="6.35" height="17.84" style="fill:#263238"></rect><rect x="204.64" y="112.93" width="6.35" height="17.84" style="fill:#263238"></rect><rect x="221.52" y="112.93" width="6.35" height="17.84" style="fill:#263238"></rect><rect x="238.39" y="112.93" width="6.35" height="17.84" style="fill:#263238"></rect><rect x="255.26" y="112.93" width="6.35" height="17.84" style="fill:#263238"></rect><rect x="272.14" y="112.93" width="6.35" height="17.84" style="fill:#263238"></rect><rect x="289.01" y="112.93" width="6.35" height="17.84" style="fill:#263238"></rect><rect x="305.88" y="112.93" width="6.35" height="17.84" style="fill:#263238"></rect><rect x="322.76" y="112.93" width="6.35" height="17.84" style="fill:#263238"></rect><rect x="339.63" y="112.93" width="6.35" height="17.84" style="fill:#263238"></rect><rect x="356.5" y="112.93" width="6.35" height="17.84" style="fill:#263238"></rect><rect x="373.38" y="112.93" width="6.35" height="17.84" style="fill:#263238"></rect><rect x="390.25" y="112.93" width="6.35" height="17.84" style="fill:#263238"></rect><rect x="407.13" y="112.93" width="6.35" height="17.84" style="fill:#263238"></rect><rect x="80.09" y="142.52" width="1.4" height="6.24" style="fill:#263238"></rect><polygon points="90.5 163.45 86.17 183.97 75.34 183.97 71.01 163.45 90.5 163.45" style="fill:#FFC727"></polygon><polygon points="90.5 163.45 86.17 183.97 75.34 183.97 71.01 163.45 90.5 163.45" style="fill:#fff;opacity:0.7000000000000001"></polygon><polygon points="70.5 163.06 91.07 163.06 89.38 168.76 71.31 164.86 70.5 163.06" style="opacity:0.1"></polygon><polygon points="90.5 163.45 71.01 163.45 80.75 153.44 90.5 163.45" style="fill:#263238"></polygon><path d="M84.49,152.34c0,1.07-3.74,2-3.74,2s-3.74-1-3.74-2,3.74-2,3.74-2S84.49,151.29,84.49,152.34Z" style="fill:#263238"></path><path d="M84.49,185.07c0,1.06-3.74,2-3.74,2s-3.74-1-3.74-2,3.74-2,3.74-2S84.49,184,84.49,185.07Z" style="fill:#263238"></path><path d="M82.31,149.14c0,.72-1.55,1.37-1.55,1.37s-1.56-.65-1.56-1.37,1.56-1.36,1.56-1.36S82.31,148.44,82.31,149.14Z" style="fill:#263238"></path><path d="M82.31,188.32c0,.72-1.55,1.37-1.55,1.37s-1.56-.65-1.56-1.37S80.76,187,80.76,187,82.31,187.61,82.31,188.32Z" style="fill:#263238"></path><rect x="69.47" y="162.56" width="22.56" height="1.88" style="fill:#263238"></rect><rect x="73.83" y="183.04" width="13.84" height="1.88" style="fill:#263238"></rect><rect x="72.67" y="163.23" width="1" height="20.97" transform="translate(-34.23 18.81) rotate(-11.89)" style="fill:#263238"></rect><rect x="77.85" y="173.21" width="20.97" height="1" transform="translate(-99.85 224.36) rotate(-78.11)" style="fill:#263238"></rect><rect x="77.24" y="163.43" width="1" height="20.57" transform="matrix(1, -0.07, 0.07, 1, -11.54, 5.64)" style="fill:#263238"></rect><rect x="73.47" y="173.21" width="20.57" height="1" transform="translate(-95.2 245.58) rotate(-86.14)" style="fill:#263238"></rect><rect x="146.26" y="142.52" width="1.4" height="6.24" style="fill:#263238"></rect><polygon points="156.66 163.45 152.33 183.97 141.5 183.97 137.18 163.45 156.66 163.45" style="fill:#FFC727"></polygon><polygon points="156.66 163.45 152.33 183.97 141.5 183.97 137.18 163.45 156.66 163.45" style="fill:#fff;opacity:0.7000000000000001"></polygon><polygon points="136.67 163.06 157.24 163.06 155.54 168.76 137.48 164.86 136.67 163.06" style="opacity:0.1"></polygon><polygon points="156.66 163.45 137.18 163.45 146.92 153.44 156.66 163.45" style="fill:#263238"></polygon><path d="M150.66,152.34c0,1.07-3.74,2-3.74,2s-3.74-1-3.74-2,3.74-2,3.74-2S150.66,151.29,150.66,152.34Z" style="fill:#263238"></path><path d="M150.66,185.07c0,1.06-3.74,2-3.74,2s-3.74-1-3.74-2,3.74-2,3.74-2S150.66,184,150.66,185.07Z" style="fill:#263238"></path><path d="M148.47,149.14c0,.72-1.55,1.37-1.55,1.37s-1.55-.65-1.55-1.37,1.55-1.36,1.55-1.36S148.47,148.44,148.47,149.14Z" style="fill:#263238"></path><path d="M148.47,188.32c0,.72-1.55,1.37-1.55,1.37s-1.55-.65-1.55-1.37,1.55-1.36,1.55-1.36S148.47,187.61,148.47,188.32Z" style="fill:#263238"></path><rect x="135.64" y="162.56" width="22.56" height="1.88" style="fill:#263238"></rect><rect x="139.99" y="183.04" width="13.84" height="1.88" style="fill:#263238"></rect><rect x="138.84" y="163.23" width="1" height="20.97" transform="translate(-32.81 32.45) rotate(-11.89)" style="fill:#263238"></rect><rect x="144.01" y="173.21" width="20.97" height="1" transform="translate(-47.32 289.1) rotate(-78.11)" style="fill:#263238"></rect><rect x="143.41" y="163.43" width="1" height="20.57" transform="translate(-11.39 10.11) rotate(-3.87)" style="fill:#263238"></rect><rect x="139.64" y="173.21" width="20.57" height="1" transform="translate(-33.49 311.59) rotate(-86.14)" style="fill:#263238"></rect><rect x="352.42" y="142.52" width="1.4" height="6.24" style="fill:#263238"></rect><polygon points="362.83 163.45 358.5 183.97 347.67 183.97 343.35 163.45 362.83 163.45" style="fill:#FFC727"></polygon><polygon points="362.83 163.45 358.5 183.97 347.67 183.97 343.35 163.45 362.83 163.45" style="fill:#fff;opacity:0.7000000000000001"></polygon><polygon points="342.83 163.06 363.4 163.06 361.71 168.76 343.64 164.86 342.83 163.06" style="opacity:0.1"></polygon><polygon points="362.83 163.45 343.35 163.45 353.08 153.44 362.83 163.45" style="fill:#263238"></polygon><path d="M356.82,152.34c0,1.07-3.74,2-3.74,2s-3.74-1-3.74-2,3.74-2,3.74-2S356.82,151.29,356.82,152.34Z" style="fill:#263238"></path><path d="M356.82,185.07c0,1.06-3.74,2-3.74,2s-3.74-1-3.74-2,3.74-2,3.74-2S356.82,184,356.82,185.07Z" style="fill:#263238"></path><path d="M354.64,149.14c0,.72-1.55,1.37-1.55,1.37s-1.55-.65-1.55-1.37,1.55-1.36,1.55-1.36S354.64,148.44,354.64,149.14Z" style="fill:#263238"></path><path d="M354.64,188.32c0,.72-1.55,1.37-1.55,1.37s-1.55-.65-1.55-1.37,1.55-1.36,1.55-1.36S354.64,187.61,354.64,188.32Z" style="fill:#263238"></path><rect x="341.8" y="162.56" width="22.56" height="1.88" style="fill:#263238"></rect><rect x="346.16" y="183.04" width="13.84" height="1.88" style="fill:#263238"></rect><rect x="345.01" y="163.23" width="1" height="20.97" transform="translate(-28.39 74.94) rotate(-11.89)" style="fill:#263238"></rect><rect x="350.18" y="173.21" width="20.97" height="1" transform="translate(116.36 490.85) rotate(-78.11)" style="fill:#263238"></rect><rect x="349.58" y="163.43" width="1" height="20.57" transform="translate(-10.93 24.03) rotate(-3.87)" style="fill:#263238"></rect><rect x="345.8" y="173.21" width="20.57" height="1" transform="translate(158.79 517.29) rotate(-86.14)" style="fill:#263238"></rect><rect x="418.59" y="142.52" width="1.4" height="6.24" style="fill:#263238"></rect><polygon points="429 163.45 424.66 183.97 413.83 183.97 409.51 163.45 429 163.45" style="fill:#FFC727"></polygon><polygon points="429 163.45 424.66 183.97 413.83 183.97 409.51 163.45 429 163.45" style="fill:#fff;opacity:0.7000000000000001"></polygon><polygon points="409 163.06 429.57 163.06 427.88 168.76 409.81 164.86 409 163.06" style="opacity:0.1"></polygon><polygon points="429 163.45 409.51 163.45 419.25 153.44 429 163.45" style="fill:#263238"></polygon><path d="M423,152.34c0,1.07-3.74,2-3.74,2s-3.74-1-3.74-2,3.74-2,3.74-2S423,151.29,423,152.34Z" style="fill:#263238"></path><path d="M423,185.07c0,1.06-3.74,2-3.74,2s-3.74-1-3.74-2,3.74-2,3.74-2S423,184,423,185.07Z" style="fill:#263238"></path><path d="M420.81,149.14c0,.72-1.56,1.37-1.56,1.37s-1.55-.65-1.55-1.37,1.55-1.36,1.55-1.36S420.81,148.44,420.81,149.14Z" style="fill:#263238"></path><path d="M420.81,188.32c0,.72-1.56,1.37-1.56,1.37s-1.55-.65-1.55-1.37,1.55-1.36,1.55-1.36S420.81,187.61,420.81,188.32Z" style="fill:#263238"></path><rect x="407.97" y="162.56" width="22.56" height="1.88" style="fill:#263238"></rect><rect x="412.33" y="183.04" width="13.84" height="1.88" style="fill:#263238"></rect><rect x="411.17" y="163.23" width="1" height="20.97" transform="translate(-26.96 88.56) rotate(-11.89)" style="fill:#263238"></rect><rect x="416.35" y="173.21" width="20.97" height="1" transform="translate(168.9 555.59) rotate(-78.11)" style="fill:#263238"></rect><rect x="415.74" y="163.43" width="1" height="20.57" transform="matrix(1, -0.07, 0.07, 1, -10.77, 28.47)" style="fill:#263238"></rect><rect x="411.97" y="173.21" width="20.57" height="1" transform="translate(220.49 583.31) rotate(-86.14)" style="fill:#263238"></rect><rect x="68.88" y="290.94" width="63.33" height="148.07" style="fill:#fff"></rect><rect x="78.3" y="300.6" width="44.49" height="122.06" style="fill:#263238"></rect><g style="opacity:0.1"><polygon points="122.8 399.24 122.8 420.3 120.44 422.66 99.36 422.66 122.8 399.24" style="fill:#fff"></polygon><polygon points="122.8 300.6 122.8 307.78 78.3 352.28 78.3 331.22 108.91 300.6 122.8 300.6" style="fill:#fff"></polygon><polygon points="122.8 316.47 122.8 320.91 78.3 365.41 78.3 360.96 122.8 316.47" style="fill:#fff"></polygon><polygon points="122.8 365.35 122.8 369.8 78.3 414.3 78.3 409.85 122.8 365.35" style="fill:#fff"></polygon><polygon points="90.64 300.6 78.3 312.94 78.3 304.22 81.92 300.6 90.64 300.6" style="fill:#fff"></polygon></g><rect x="125.61" y="376.8" width="3.9" height="12.54" style="fill:#a6a6a6"></rect><rect x="78.3" y="372.74" width="44.5" height="4.06" style="fill:#fff"></rect><rect x="146.7" y="290.94" width="135.59" height="103.02" style="fill:#fff"></rect><rect x="150.07" y="294.44" width="128.84" height="96.01" style="fill:#263238"></rect><g style="opacity:0.1"><polygon points="278.92 353.1 278.92 371.26 259.72 390.45 241.56 390.45 278.92 353.1" style="fill:#fff"></polygon><polygon points="225.45 294.45 150.08 369.82 150.08 351.65 207.29 294.45 225.45 294.45" style="fill:#fff"></polygon><polygon points="236.77 294.45 150.08 381.12 150.08 377.29 232.94 294.45 236.77 294.45" style="fill:#fff"></polygon><polygon points="278.92 323.88 278.92 327.71 216.17 390.45 212.35 390.45 278.92 323.88" style="fill:#fff"></polygon><polygon points="278.92 378.19 278.92 385.7 274.16 390.45 266.65 390.45 278.92 378.19" style="fill:#fff"></polygon><polygon points="191.54 294.45 150.08 335.91 150.08 328.39 184.02 294.45 191.54 294.45" style="fill:#fff"></polygon></g><rect x="295.53" y="290.94" width="135.59" height="103.02" style="fill:#fff"></rect><rect x="298.9" y="294.44" width="128.84" height="96.01" style="fill:#263238"></rect><g style="opacity:0.1"><polygon points="427.74 353.1 427.74 371.26 408.55 390.45 390.38 390.45 427.74 353.1" style="fill:#fff"></polygon><polygon points="374.27 294.45 298.9 369.82 298.9 351.65 356.12 294.45 374.27 294.45" style="fill:#fff"></polygon><polygon points="385.59 294.45 298.9 381.12 298.9 377.29 381.76 294.45 385.59 294.45" style="fill:#fff"></polygon><polygon points="427.74 323.88 427.74 327.71 365 390.45 361.17 390.45 427.74 323.88" style="fill:#fff"></polygon><polygon points="427.74 378.19 427.74 385.7 422.99 390.45 415.48 390.45 427.74 378.19" style="fill:#fff"></polygon><polygon points="340.37 294.45 298.9 335.91 298.9 328.39 332.85 294.45 340.37 294.45" style="fill:#fff"></polygon></g><path d="M443.31,213.2V274H56.69V213.2H191.17a58.83,58.83,0,1,1,117.66,0Z" style="fill:#455a64"></path><path d="M443.31,217.84H304.58v-.25C304.58,184.2,281.12,159,250,159s-54.58,25.19-54.58,58.58v.25H56.69v-.5H194.92c.06-16,5.48-30.69,15.3-41.51a54.34,54.34,0,0,1,79.56,0c9.82,10.82,15.24,25.56,15.3,41.51H443.31Z" style="fill:#fff"></path><circle cx="249.66" cy="182.74" r="17.68" style="fill:#fff"></circle><rect x="216.85" y="208.2" width="65.62" height="4.48" style="fill:#FFC727"></rect><rect x="216.85" y="208.2" width="65.62" height="4.48" style="opacity:0.1"></rect><polygon points="276.19 242.85 223.13 242.85 220.07 212.68 279.25 212.68 276.19 242.85" style="fill:#FFC727"></polygon><polygon points="279.25 212.68 278.91 216.04 278.87 216.46 278.42 220.88 278.35 221.57 278.18 223.2 278.13 223.72 277.45 230.41 277.4 230.92 277.39 230.99 277.33 231.69 276.72 237.67 276.68 238.07 276.36 241.24 276.32 241.65 276.19 242.85 223.13 242.85 223.01 241.66 222.97 241.24 222.65 238.07 222.61 237.66 222 231.69 221.92 230.99 221.92 230.92 221.87 230.41 221.19 223.72 221.13 223.19 220.97 221.56 220.9 220.88 220.45 216.48 220.41 216.04 220.07 212.68 279.25 212.68" style="fill:#FFC727"></polygon><polygon points="279.25 212.68 278.91 216.04 278.87 216.46 278.42 220.88 278.35 221.57 278.18 223.2 278.13 223.72 277.45 230.41 277.4 230.92 277.39 230.99 277.33 231.69 276.72 237.67 276.68 238.07 276.36 241.24 276.32 241.65 276.19 242.85 223.13 242.85 223.01 241.66 222.97 241.24 222.65 238.07 222.61 237.66 222 231.69 221.92 230.99 221.92 230.92 221.87 230.41 221.19 223.72 221.13 223.19 220.97 221.56 220.9 220.88 220.45 216.48 220.41 216.04 220.07 212.68 279.25 212.68" style="opacity:0.1"></polygon><polygon points="220.57 217.58 220.07 212.68 279.25 212.68 279 215.13 220.57 217.58" style="opacity:0.1"></polygon><path d="M223,241.24l0,.42c.24.4.49.8.74,1.19h.16C223.6,242.31,223.28,241.77,223,241.24Zm11.66-14.5-.05.08-.14.25,2.35,3.87.19-.3Zm0,0-.05.08-.14.25,2.35,3.87.19-.3Zm0,0-.05.08-.14.25,2.35,3.87.19-.3Zm-7.82-12.83-.75-1.23h-.22c.28.48.56,1,.85,1.43l.12.22c0-.07.09-.14.13-.22A1.37,1.37,0,0,0,226.8,213.91Zm25.22,17-2.36,3.94-.16.28.16.25.16-.25,2.39-3.92Zm20.5-17-.75-1.23h-.22c.27.48.56.95.84,1.43a2.39,2.39,0,0,0,.13.21.88.88,0,0,0,.12-.21A.82.82,0,0,0,272.52,213.91Zm2.89,28.94h.16c.26-.4.5-.8.75-1.2l0-.41C276,241.77,275.73,242.31,275.41,242.85Zm-2.15-30.17-.74,1.23-.13.2a2.39,2.39,0,0,0,.13.21.88.88,0,0,0,.12-.21l.85-1.43ZM252,230.94l-2.36,3.94-.16.28.16.25.16-.25,2.39-3.92Zm-17.4-4.2-.05.08-.14.25,2.35,3.87.19-.3Zm-7.07-14.06-.75,1.23a.82.82,0,0,0-.12.2l.12.22c0-.07.09-.14.13-.22l.85-1.43Z" style="fill:#030402;opacity:0.1"></path><path d="M277.73,214.11l.84-1.43h-.22q-.39.62-.75,1.23l-.75-1.23h-.22c.28.48.56,1,.85,1.43q-.69,1.09-1.35,2.19l-1.07,1.76L274,216.3c-.45-.73-.89-1.46-1.35-2.19a.88.88,0,0,1-.12.21c.41.71.83,1.41,1.25,2.12l1.13,1.88-2.38,3.92-2.39-3.92,1.14-1.88c.41-.71.84-1.41,1.25-2.12a2.39,2.39,0,0,1-.13-.21L271,216.3,270,218.06l-1.07-1.76c-.45-.73-.89-1.46-1.35-2.19.29-.47.57-1,.85-1.43h-.22l-.75,1.23-.75-1.23h-.23l.85,1.43L266,216.3l-1.06,1.75-1.07-1.75-1.34-2.19.84-1.43h-.22l-.75,1.23-.75-1.23h-.22c.28.48.56,1,.85,1.43-.46.73-.9,1.46-1.35,2.19l-1.07,1.76-1.06-1.76-1.35-2.19.84-1.43H258q-.39.62-.75,1.23l-.75-1.23h-.22l.85,1.43q-.69,1.09-1.35,2.19l-1.07,1.76-1.07-1.76c-.45-.73-.89-1.46-1.35-2.19.29-.47.57-1,.85-1.43H253l-.75,1.23-.75-1.23h-.22l.84,1.43-1.35,2.19-1.06,1.76-1.07-1.76c-.45-.73-.89-1.46-1.35-2.19.29-.47.57-1,.85-1.43h-.22l-.75,1.23-.75-1.23h-.22c.28.48.56,1,.85,1.43-.46.73-.9,1.46-1.35,2.19l-1.07,1.75-1.06-1.75c-.45-.73-.89-1.46-1.35-2.19l.85-1.43h-.23l-.75,1.23-.75-1.23h-.22c.28.48.56,1,.85,1.43-.46.73-.9,1.46-1.35,2.19l-1.07,1.76-1.06-1.76-1.35-2.19c.28-.48.57-1,.84-1.43h-.22c-.25.41-.5.82-.74,1.23l-.75-1.23H236l.85,1.43c-.46.73-.9,1.46-1.35,2.19l-1.06,1.76-1.08-1.76q-.66-1.1-1.35-2.19c.29-.47.57-1,.85-1.43h-.22l-.75,1.23q-.36-.61-.75-1.23h-.22l.84,1.43c-.44.73-.89,1.46-1.34,2.19l-1.07,1.76-1.06-1.76-1.35-2.19c0,.08-.09.15-.13.22l1.25,2.11,1.13,1.88-2.38,3.91-2.38-3.91,1.13-1.88,1.25-2.11-.12-.22c-.46.73-.9,1.46-1.35,2.19l-1.07,1.75-1.06-1.75c-.45-.73-.89-1.46-1.35-2.19l.85-1.43h-.23l-.75,1.23-.74-1.23h-.23l.85,1.43L220.41,216l0,.44,0,0,1.24-2.11,1.25,2.11,1.14,1.88-2.39,3.91-.82-1.35.07.68.57,1-.41.67.06.53.53-.9,2.35,3.92-2.2,3.67,0,.51,2.34-3.86,2.37,3.88-2.37,3.94L221.92,231l.08.7,2.11,3.47L223,237c-.12.2-.25.41-.36.62l0,.41.55-.9,1.06-1.75,1.07,1.75,1.35,2.2c-.69,1.15-1.38,2.32-2.06,3.48h.16c.68-1.09,1.36-2.18,2-3.28.67,1.1,1.34,2.19,2,3.28H229c-.68-1.17-1.37-2.33-2.06-3.49l1.35-2.19,1.06-1.76,1.07,1.76c.45.73.9,1.46,1.34,2.2-.69,1.15-1.37,2.32-2.05,3.48h.16c.68-1.09,1.35-2.18,2-3.28.67,1.1,1.35,2.19,2,3.28h.17c-.68-1.17-1.37-2.33-2.07-3.49.46-.73.9-1.46,1.35-2.19l1.08-1.76,1.06,1.76c.45.73.89,1.46,1.35,2.19-.69,1.16-1.38,2.32-2.06,3.49h.16c.69-1.09,1.36-2.18,2-3.28.66,1.1,1.34,2.19,2,3.28h.16c-.68-1.16-1.37-2.33-2.06-3.48l1.35-2.2,1.06-1.76,1.07,1.76c.45.73.89,1.46,1.35,2.19-.69,1.16-1.38,2.32-2.06,3.49H240c.68-1.09,1.36-2.18,2-3.28.67,1.1,1.34,2.19,2,3.28h.15c-.67-1.17-1.36-2.33-2.05-3.49.46-.73.9-1.46,1.35-2.19l1.06-1.75,1.07,1.75c.45.73.89,1.46,1.35,2.19-.7,1.16-1.39,2.32-2.06,3.49h.16c.68-1.09,1.35-2.18,2-3.28.67,1.1,1.34,2.19,2,3.28h.16c-.67-1.17-1.36-2.33-2.06-3.49.46-.73.9-1.46,1.35-2.19l1.07-1.76-.16-.25L248.37,237c-.42.7-.84,1.4-1.25,2.11-.41-.71-.83-1.41-1.25-2.11l-1.13-1.88,2.38-3.92,2.38,3.92.16-.28L247.3,231l2.37-3.88,2.35,3.87.19.3,2.38,3.92L253.45,237c-.42.7-.84,1.4-1.25,2.11-.41-.71-.83-1.41-1.25-2.11l-1.13-1.88-.16.25,1.06,1.76,1.35,2.2c-.69,1.15-1.38,2.32-2,3.48h.15c.69-1.09,1.36-2.18,2-3.28.66,1.1,1.34,2.19,2,3.28h.16c-.68-1.17-1.37-2.33-2.06-3.49.46-.73.9-1.46,1.35-2.19l1.07-1.76,1.07,1.76c.45.73.89,1.46,1.35,2.19l-2.07,3.49h.17c.67-1.09,1.35-2.18,2-3.28.67,1.1,1.34,2.19,2,3.28h.15c-.68-1.16-1.36-2.33-2-3.48l1.35-2.2,1.06-1.76,1.07,1.76c.45.73.89,1.46,1.35,2.19-.7,1.16-1.39,2.32-2.07,3.49h.17c.68-1.09,1.35-2.18,2-3.28.67,1.1,1.34,2.19,2,3.28h.16c-.67-1.16-1.36-2.33-2.05-3.48.44-.74.89-1.47,1.34-2.2l1.07-1.75,1.06,1.75,1.35,2.19c-.69,1.16-1.38,2.32-2.06,3.49h.17c.68-1.09,1.35-2.18,2-3.28.66,1.1,1.34,2.19,2,3.28h.17l-2.07-3.49c.46-.73.9-1.46,1.35-2.19l1.07-1.76,1.06,1.76,1.35,2.2c-.69,1.15-1.38,2.32-2.06,3.48h.16c.69-1.09,1.36-2.18,2-3.28.66,1.1,1.34,2.19,2,3.28h.16c-.68-1.17-1.37-2.33-2.06-3.49.46-.73.9-1.46,1.35-2.19l1.07-1.76,1.07,1.76c.18.3.36.6.55.9l0-.4c-.13-.21-.25-.43-.38-.63l-1.13-1.88,2.12-3.48.06-.69-2.33,3.9-2.36-3.95,2.36-3.87,2.34,3.85.05-.51-2.2-3.67,2.35-3.91.53.89.05-.52-.4-.67.57-1,.07-.69-.82,1.36-2.39-3.92,1.13-1.88,1.26-2.12c.41.71.83,1.41,1.25,2.12l0,0,0-.42C278.52,215.4,278.13,214.75,277.73,214.11Zm-5.39,8.42L270,226.41l-2.37-3.89,2.36-3.93Zm-2.55,4.21-2.35,3.91-2.35-3.91,2.35-3.92Zm-3.6-10.3,1.25-2.11,1.25,2.11,1.13,1.88-2.38,3.91-2.38-3.91Zm1.07,6.09-2.36,3.89-2.36-3.89,2.36-3.94Zm-2.55,4.21-2.35,3.91L260,226.74l2.35-3.92Zm-3.6-10.3,1.25-2.11,1.25,2.11,1.13,1.88-2.38,3.91L260,218.32Zm1.07,6.08-2.36,3.89-2.36-3.88,2.36-3.94Zm-2.56,4.22-2.34,3.9-2.34-3.9,2.34-3.91ZM256,216.44c.42-.71.84-1.41,1.25-2.12.41.71.84,1.41,1.25,2.12l1.13,1.88-2.38,3.92-2.39-3.92Zm1.07,6.09-2.36,3.88-2.36-3.88,2.36-3.95ZM251,216.44c.42-.71.84-1.41,1.25-2.12.41.71.83,1.41,1.25,2.12l1.14,1.88-2.38,3.92-2.39-3.92Zm-5.08,0c.42-.71.84-1.41,1.25-2.12.41.71.83,1.41,1.25,2.12l1.13,1.88-2.38,3.91-2.38-3.91Zm1.08,6.09-2.37,3.89-2.36-3.89,2.36-3.94Zm-2.56,4.21L242,230.65l-2.34-3.91,2.34-3.92Zm-3.6-10.3c.42-.71.84-1.41,1.25-2.12.41.71.84,1.41,1.25,2.12l1.13,1.88L242,222.23l-2.38-3.91Zm1.07,6.08-2.36,3.89-2.36-3.88,2.36-3.94Zm-6.15-6.08,1.26-2.12c.4.71.83,1.41,1.24,2.12l1.14,1.88L237,222.24l-2.39-3.92Zm1.07,6.09-2.35,3.88-2.37-3.88,2.37-3.95Zm-2.55,4.21-2.34,3.9-2.35-3.9,2.34-3.91Zm-3.6-10.3,1.26-2.12c.41.71.82,1.41,1.25,2.12l1.13,1.88-2.38,3.92-2.39-3.92Zm-1.29,2.15,2.36,3.94-2.35,3.88L227,222.52Zm-7.44,3.94,2.36-3.94,2.37,3.94-2.37,3.89Zm2.55,4.21,2.35-3.92,2.35,3.92-2.35,3.91Zm3.61,10.3c-.43.7-.84,1.4-1.25,2.11L225.55,237l-1.13-1.88,2.38-3.92,2.38,3.92ZM227,231l2.36-3.88,2.35,3.87-2.36,3.95Zm6.15,6.09c-.42.7-.84,1.4-1.25,2.11L230.63,237l-1.13-1.88,2.39-3.92,2.38,3.92Zm-1.08-6.1,2.37-3.87.14-.25.05-.08,2.35-3.91,2.33,3.91-2.33,3.9-.19.3-2.35,3.95Zm6.15,6.1c-.41.7-.84,1.4-1.24,2.11L235.71,237l-1.13-1.88,2.39-3.92,2.38,3.92Zm-1.07-6.1,2.36-3.87,2.36,3.88-2.36,3.93Zm6.15,6.1c-.41.7-.84,1.4-1.25,2.11-.41-.71-.83-1.41-1.25-2.11l-1.13-1.88,2.38-3.92,2.38,3.92Zm1.29-2.16-2.36-3.94,2.36-3.88,2.37,3.88Zm2.54-4.23-2.35-3.91,2.35-3.92,2.35,3.92Zm.18-8.13,2.36-3.93,2.36,3.94-2.35,3.88Zm4.9,8.12-2.34-3.9,2.34-3.91,2.34,3.91Zm.18.3,2.36-3.87,2.36,3.87-2.36,3.95Zm6.15,6.1c-.41.7-.84,1.4-1.25,2.11-.41-.71-.84-1.41-1.25-2.11l-1.14-1.88,2.39-3.92,2.38,3.92Zm-1.07-6.1,2.36-3.87,2.36,3.88-2.36,3.94Zm6.15,6.1c-.42.7-.84,1.4-1.25,2.11-.42-.71-.83-1.41-1.26-2.11L260,235.16l2.38-3.92,2.38,3.92Zm-1.07-6.1,2.36-3.88,2.36,3.88-2.36,3.94Zm6.15,6.1c-.42.7-.84,1.4-1.25,2.1l-1.25-2.1-1.13-1.88,2.38-3.92,2.38,3.92ZM267.62,231l2.37-3.88,2.35,3.87L270,234.88Zm7.28,4.21L273.77,237c-.42.7-.84,1.4-1.25,2.11-.41-.71-.84-1.41-1.25-2.11l-1.14-1.88,2.39-3.92Zm-2.38-4.52-2.34-3.9,2.34-3.91,2.34,3.91Zm4.9-8.11-2.36,3.88-2.36-3.88,2.36-3.95Z" style="fill:#030402;opacity:0.1"></path><path d="M251.78,199.57A17.58,17.58,0,0,1,250,208.2h0v3.14a2.42,2.42,0,0,1-2,2.42,2.37,2.37,0,0,1-2.72-2.34v-1a2.21,2.21,0,0,0-2.2-2.2h-3.28a2.2,2.2,0,0,0-2.19,2.2v2.36a2.38,2.38,0,0,1-4,1.76,2.4,2.4,0,0,1-.69-1.68v-1.47a2.37,2.37,0,0,0-2.36-2.37h0a2.37,2.37,0,0,0-2.36,2.37v10.25a2.41,2.41,0,0,1-2,2.41,2.37,2.37,0,0,1-2.08-.65,2.42,2.42,0,0,1-.69-1.68V210.4a2.2,2.2,0,0,0-2.2-2.2h-2.92a17.68,17.68,0,1,1,33.54-8.63Z" style="fill:#FFC727"></path><path d="M251.78,199.57A17.58,17.58,0,0,1,250,208.2h0v3.14a2.42,2.42,0,0,1-2,2.42,2.37,2.37,0,0,1-2.72-2.34v-1a2.21,2.21,0,0,0-2.2-2.2h-3.28a2.2,2.2,0,0,0-2.19,2.2v2.36a2.38,2.38,0,0,1-4,1.76,2.4,2.4,0,0,1-.69-1.68v-1.47a2.37,2.37,0,0,0-2.36-2.37h0a2.37,2.37,0,0,0-2.36,2.37v10.25a2.41,2.41,0,0,1-2,2.41,2.37,2.37,0,0,1-2.08-.65,2.42,2.42,0,0,1-.69-1.68V210.4a2.2,2.2,0,0,0-2.2-2.2h-2.92a17.68,17.68,0,1,1,33.54-8.63Z" style="fill:#fff;opacity:0.4"></path><path d="M248.2,200.42a17.62,17.62,0,0,0,1.8,7.78h4.35a1.25,1.25,0,0,1,1.25,1.25v8a2.37,2.37,0,0,0,2.37,2.36h0a2.36,2.36,0,0,0,2.36-2.36v-8a1.25,1.25,0,0,1,1.25-1.25h0a1.25,1.25,0,0,1,1.25,1.25v.7a2.37,2.37,0,0,0,2.37,2.36h0a2.37,2.37,0,0,0,2.37-2.36v-.7a1.25,1.25,0,0,1,1.25-1.25h2.87a1.25,1.25,0,0,1,1.25,1.25v4.31a2.36,2.36,0,0,0,2.36,2.36h0a2.37,2.37,0,0,0,2.37-2.36v-4.31a1.25,1.25,0,0,1,1.25-1.25h2.84a17.68,17.68,0,1,0-33.56-7.78Z" style="fill:#FFC727"></path><g style="opacity:0.7000000000000001"><path d="M248.2,200.42a17.62,17.62,0,0,0,1.8,7.78h4.35a1.25,1.25,0,0,1,1.25,1.25v8a2.37,2.37,0,0,0,2.37,2.36h0a2.36,2.36,0,0,0,2.36-2.36v-8a1.25,1.25,0,0,1,1.25-1.25h0a1.25,1.25,0,0,1,1.25,1.25v.7a2.37,2.37,0,0,0,2.37,2.36h0a2.37,2.37,0,0,0,2.37-2.36v-.7a1.25,1.25,0,0,1,1.25-1.25h2.87a1.25,1.25,0,0,1,1.25,1.25v4.31a2.36,2.36,0,0,0,2.36,2.36h0a2.37,2.37,0,0,0,2.37-2.36v-4.31a1.25,1.25,0,0,1,1.25-1.25h2.84a17.68,17.68,0,1,0-33.56-7.78Z" style="fill:#fff"></path></g><path d="M143.09,258v0a2.9,2.9,0,0,1,5.8,0v0a2.9,2.9,0,0,1-5.8,0Z" style="fill:#fff"></path><path d="M165,252a1.11,1.11,0,0,1,1.12-1.13,1.14,1.14,0,0,1,1.15,1.13v12.08a1.14,1.14,0,0,1-1.15,1.13,1.11,1.11,0,0,1-1.12-1.13Z" style="fill:#fff"></path><path d="M170.46,257.82a7.52,7.52,0,0,1,7.52-7.38,7.69,7.69,0,0,1,4.73,1.6,1.18,1.18,0,0,1-1.44,1.86,5.12,5.12,0,0,0-3.29-1.12,5.41,5.41,0,0,0-3.69,1.47,5.05,5.05,0,0,0-1.49,3.57,5,5,0,0,0,1.49,3.56,5.41,5.41,0,0,0,3.69,1.47,5.16,5.16,0,0,0,3.29-1.12,1.24,1.24,0,0,1,1.64.22,1.21,1.21,0,0,1-.2,1.64,7.69,7.69,0,0,1-4.73,1.6A7.49,7.49,0,0,1,170.46,257.82Z" style="fill:#fff"></path><path d="M186.88,264.06V252a1.11,1.11,0,0,1,1.13-1.13h6.69a1.14,1.14,0,0,1,1.13,1.13,1.16,1.16,0,0,1-1.13,1.15h-5.55v3.74h4.77a1.14,1.14,0,0,1,0,2.28h-4.77v3.76h5.55a1.14,1.14,0,0,1,0,2.28h-6.63s0,0,0,0l0,0A1.12,1.12,0,0,1,186.88,264.06Z" style="fill:#fff"></path><path d="M204.52,257.82a7.52,7.52,0,0,1,7.52-7.38,7.69,7.69,0,0,1,4.73,1.6,1.21,1.21,0,0,1,.2,1.64,1.19,1.19,0,0,1-1.63.22,5.15,5.15,0,0,0-3.3-1.12,5.45,5.45,0,0,0-3.69,1.47,5.05,5.05,0,0,0-1.49,3.57,5,5,0,0,0,1.49,3.56,5.45,5.45,0,0,0,3.69,1.47,5.21,5.21,0,0,0,3.3-1.12A1.23,1.23,0,0,1,217,262a1.21,1.21,0,0,1-.2,1.64,7.69,7.69,0,0,1-4.73,1.6A7.49,7.49,0,0,1,204.52,257.82Z" style="fill:#fff"></path><path d="M230.42,263.49a1.12,1.12,0,0,1-.71,1.43,1.94,1.94,0,0,1-.45.06h0a1.49,1.49,0,0,1-.8-.22,2.08,2.08,0,0,1-.66-.72,5.59,5.59,0,0,1-.43-2.46,1.77,1.77,0,0,0-.24-.88,2,2,0,0,0-.62-.59,3.79,3.79,0,0,0-1.14-.49h-2.42v4.44a1.14,1.14,0,0,1-1.15,1.13,1.12,1.12,0,0,1-1.12-1.13V252a1.11,1.11,0,0,1,1.12-1.13h3.67a4.39,4.39,0,0,1,4.38,4.41,4.31,4.31,0,0,1-1.6,3.35,3.27,3.27,0,0,1,.72.76,3.88,3.88,0,0,1,.67,2.21,5.06,5.06,0,0,0,.09,1.21A1.1,1.1,0,0,1,230.42,263.49Zm-2.86-8.23a2.11,2.11,0,0,0-2.11-2.13h-2.52v4.21h2.52A2.1,2.1,0,0,0,227.56,255.26Z" style="fill:#fff"></path><path d="M233.74,264.06V252a1.11,1.11,0,0,1,1.12-1.13h6.7a1.14,1.14,0,0,1,1.13,1.13,1.17,1.17,0,0,1-1.13,1.15H236v3.74h4.77a1.14,1.14,0,0,1,0,2.28H236v3.76h5.55a1.14,1.14,0,0,1,0,2.28h-6.64s0,0,0,0l0,0A1.12,1.12,0,0,1,233.74,264.06Z" style="fill:#fff"></path><path d="M253.19,261.81h-5l-1,2.66a1.17,1.17,0,0,1-1.07.72,1.27,1.27,0,0,1-.39-.06,1.16,1.16,0,0,1-.67-1.48l4.52-12.06a1.16,1.16,0,0,1,1.09-.72,1.12,1.12,0,0,1,1.08.72l4.53,12.06a1.17,1.17,0,0,1-.68,1.48,1.15,1.15,0,0,1-1.43-.66Zm-.84-2.25-1.66-4.41L249,259.56Z" style="fill:#fff"></path><path d="M271.43,252v12.08a1.16,1.16,0,0,1-1.15,1.13,1.13,1.13,0,0,1-1.13-1.13v-8.62l-2.94,4.1a1.16,1.16,0,0,1-.93.47h0a1.17,1.17,0,0,1-.94-.47l-2.93-4.1v8.62a1.14,1.14,0,0,1-2.27,0V252a1.14,1.14,0,0,1,1.13-1.13h.06a1.14,1.14,0,0,1,.9.47l4.07,5.66,4.08-5.66a1.12,1.12,0,0,1,.92-.47h0A1.17,1.17,0,0,1,271.43,252Z" style="fill:#fff"></path><path d="M282.07,261.62a1.06,1.06,0,0,1,1.49-.14,6.67,6.67,0,0,0,3.91,1.58,4.39,4.39,0,0,0,2.56-.76,1.82,1.82,0,0,0,.88-1.47,1.21,1.21,0,0,0-.18-.66,2,2,0,0,0-.61-.61,8.33,8.33,0,0,0-2.81-1h0a10.87,10.87,0,0,1-2.64-.8,4.38,4.38,0,0,1-1.91-1.59,3.22,3.22,0,0,1-.47-1.68,3.79,3.79,0,0,1,1.64-3,6,6,0,0,1,3.54-1.09,8.09,8.09,0,0,1,4.47,1.64,1.06,1.06,0,0,1,.28,1.46,1,1,0,0,1-1.45.3,6,6,0,0,0-3.3-1.31,3.9,3.9,0,0,0-2.29.7,1.64,1.64,0,0,0-.78,1.29,1,1,0,0,0,.14.57,1.92,1.92,0,0,0,.56.53,6.9,6.9,0,0,0,2.56.9h0a12.13,12.13,0,0,1,2.82.87,4.75,4.75,0,0,1,2,1.69,3.34,3.34,0,0,1,.49,1.75,3.94,3.94,0,0,1-1.76,3.17,6.37,6.37,0,0,1-3.79,1.17,8.84,8.84,0,0,1-5.24-2.05A1.09,1.09,0,0,1,282.07,261.62Z" style="fill:#fff"></path><path d="M296.17,264.06V252a1.11,1.11,0,0,1,1.13-1.13,1.12,1.12,0,0,1,1.14,1.13v4.91h5.31V252a1.11,1.11,0,0,1,1.12-1.13A1.13,1.13,0,0,1,306,252v12.08a1.13,1.13,0,0,1-1.15,1.13,1.11,1.11,0,0,1-1.12-1.13v-4.91h-5.31v4.91a1.12,1.12,0,0,1-1.14,1.13A1.11,1.11,0,0,1,296.17,264.06Z" style="fill:#fff"></path><path d="M321.38,252.63a7.56,7.56,0,0,1,0,10.37,6.72,6.72,0,0,1-4.9,2.19,6.93,6.93,0,0,1-5-2.19,7.66,7.66,0,0,1,0-10.37,6.86,6.86,0,0,1,5-2.19A6.64,6.64,0,0,1,321.38,252.63Zm-.27,5.19a5.3,5.3,0,0,0-1.39-3.59,4.43,4.43,0,0,0-6.56,0,5.21,5.21,0,0,0-1.39,3.59,5.12,5.12,0,0,0,1.39,3.56,4.39,4.39,0,0,0,6.56,0A5.21,5.21,0,0,0,321.11,257.82Z" style="fill:#fff"></path><path d="M332.26,259.62h-2.52v4.44a1.14,1.14,0,0,1-2.27,0V252a1.12,1.12,0,0,1,1.13-1.13h3.66a4.39,4.39,0,1,1,0,8.77Zm-2.52-2.28h2.52a2.11,2.11,0,1,0,0-4.21h-2.52Z" style="fill:#fff"></path><path d="M351.83,258v0a2.9,2.9,0,0,1,5.8,0v0a2.9,2.9,0,0,1-5.8,0Z" style="fill:#fff"></path><path d="M185.63,237.73v-5.31a.48.48,0,0,1,.49-.49h2.95a.5.5,0,0,1,.49.49.51.51,0,0,1-.49.51h-2.44v1.64h2.09a.51.51,0,0,1,.5.5.5.5,0,0,1-.5.5h-2.09v2.16a.51.51,0,0,1-.51.5A.49.49,0,0,1,185.63,237.73Z" style="fill:#fff"></path><path d="M195.24,237.48a.5.5,0,0,1-.31.63.77.77,0,0,1-.2,0h0a.65.65,0,0,1-.35-.1.82.82,0,0,1-.29-.32,2.35,2.35,0,0,1-.19-1.08.78.78,0,0,0-.11-.38.75.75,0,0,0-.27-.26,1.71,1.71,0,0,0-.5-.22H192v1.95a.51.51,0,0,1-.51.5.49.49,0,0,1-.49-.5v-5.31a.48.48,0,0,1,.49-.49h1.61a1.93,1.93,0,0,1,1.23,3.41,1.64,1.64,0,0,1,.31.33,1.72,1.72,0,0,1,.3,1,2,2,0,0,0,0,.53A.5.5,0,0,1,195.24,237.48ZM194,233.86a.92.92,0,0,0-.93-.93H192v1.85h1.1A.92.92,0,0,0,194,233.86Z" style="fill:#fff"></path><path d="M196.7,237.73v-5.31a.48.48,0,0,1,.49-.49h2.95a.49.49,0,0,1,.49.49.51.51,0,0,1-.49.51H197.7v1.64h2.09a.51.51,0,0,1,.5.5.5.5,0,0,1-.5.5H197.7v1.66h2.44a.5.5,0,0,1,.49.5.51.51,0,0,1-.49.5h-2.95A.49.49,0,0,1,196.7,237.73Z" style="fill:#fff"></path><path d="M201.84,236.66a.46.46,0,0,1,.65-.06,3,3,0,0,0,1.72.69,1.94,1.94,0,0,0,1.13-.33.81.81,0,0,0,.39-.65.48.48,0,0,0-.09-.29.76.76,0,0,0-.27-.27,3.63,3.63,0,0,0-1.23-.42h0A4.92,4.92,0,0,1,203,235a2,2,0,0,1-.84-.7,1.44,1.44,0,0,1-.2-.74,1.66,1.66,0,0,1,.72-1.32,2.68,2.68,0,0,1,1.55-.47,3.52,3.52,0,0,1,2,.72.46.46,0,0,1-.52.77,2.56,2.56,0,0,0-1.45-.58,1.7,1.7,0,0,0-1,.31.71.71,0,0,0-.35.57.39.39,0,0,0,.07.25.76.76,0,0,0,.24.23,2.93,2.93,0,0,0,1.13.4h0a5.4,5.4,0,0,1,1.25.38,2.07,2.07,0,0,1,.9.75,1.47,1.47,0,0,1,.21.76,1.75,1.75,0,0,1-.77,1.4,2.85,2.85,0,0,1-1.67.51,3.9,3.9,0,0,1-2.3-.9A.47.47,0,0,1,201.84,236.66Z" style="fill:#fff"></path><path d="M208,237.73v-5.31a.48.48,0,0,1,.49-.49.5.5,0,0,1,.51.49v2.16h2.33v-2.16a.48.48,0,0,1,.49-.49.5.5,0,0,1,.51.49v5.31a.5.5,0,0,1-.51.5.49.49,0,0,1-.49-.5v-2.16H209v2.16a.5.5,0,0,1-.51.5A.49.49,0,0,1,208,237.73Z" style="fill:#fff"></path><path d="M255.12,230.73a2.5,2.5,0,0,1-.88,2,1.61,1.61,0,0,0-.23.12,4.1,4.1,0,0,1,0,.49,4.93,4.93,0,0,1-9.85,0,4.83,4.83,0,0,1,1.6-3.6,3.74,3.74,0,0,1-.57-2,3.81,3.81,0,0,1,7.62,0,1.12,1.12,0,0,1-1.13,1.13,1.14,1.14,0,0,1-1.15-1.13,1.51,1.51,0,0,0-1.53-1.53,1.53,1.53,0,0,0-1.54,1.53,1.49,1.49,0,0,0,.66,1.25,1.16,1.16,0,0,1,.3,1.52h0s0,0,0,.08a2.28,2.28,0,0,1-.22.22s0,0-.06,0l-.07,0-.1.06a2.67,2.67,0,0,0-1.49,2.39,2.65,2.65,0,1,0,5.3,0v-.12c-1.06,0-1.45.27-1.56.39a.55.55,0,0,0-.16.45,2.09,2.09,0,0,0,0,.23,1.14,1.14,0,0,1-.78,1.41,1.36,1.36,0,0,1-.3,0,1.09,1.09,0,0,1-1.09-.82,2.32,2.32,0,0,1-.12-.86,2.76,2.76,0,0,1,.84-2.07,4.44,4.44,0,0,1,3.19-1c.23,0,.45,0,.68,0h.08a.93.93,0,0,0,.23,0l.06,0v-.15a2,2,0,0,0,0-.3,1.1,1.1,0,0,1,.84-1.36,1.13,1.13,0,0,1,1.35.86A2.79,2.79,0,0,1,255.12,230.73Z" style="fill:#fff"></path><path d="M288.06,237.73v-5.31a.5.5,0,0,1,1,0v2.16h2.34v-2.16a.48.48,0,0,1,.49-.49.49.49,0,0,1,.5.49v5.31a.5.5,0,0,1-.5.5.49.49,0,0,1-.49-.5v-2.16h-2.34v2.16a.5.5,0,0,1-1,0Z" style="fill:#fff"></path><path d="M294.45,237.73v-5.31a.48.48,0,0,1,.49-.49h2.94a.49.49,0,0,1,.5.49.51.51,0,0,1-.5.51h-2.44v1.64h2.1a.51.51,0,0,1,.5.5.5.5,0,0,1-.5.5h-2.1v1.66h2.44a.5.5,0,0,1,.5.5.51.51,0,0,1-.5.5h-2.94A.49.49,0,0,1,294.45,237.73Z" style="fill:#fff"></path><path d="M303,236.74h-2.19l-.44,1.17a.51.51,0,0,1-.47.32.47.47,0,0,1-.17,0,.52.52,0,0,1-.3-.65l2-5.3a.5.5,0,0,1,.48-.31.5.5,0,0,1,.48.31l2,5.3a.51.51,0,0,1-.29.65.47.47,0,0,1-.17,0,.48.48,0,0,1-.46-.32Zm-.37-1-.73-1.93-.73,1.93Z" style="fill:#fff"></path><path d="M305.6,237.73v-5.31a.48.48,0,0,1,.49-.49.49.49,0,0,1,.5.49v4.81H309a.5.5,0,0,1,.5.5.51.51,0,0,1-.5.5h-2.94A.49.49,0,0,1,305.6,237.73Z" style="fill:#fff"></path><path d="M313.62,232.93h-1.44v4.8a.49.49,0,0,1-.49.5.5.5,0,0,1-.5-.5v-4.8h-1.42a.5.5,0,0,1-.49-.51.48.48,0,0,1,.49-.49h3.85a.48.48,0,0,1,.49.49A.51.51,0,0,1,313.62,232.93Z" style="fill:#fff"></path><path d="M315.59,237.73v-5.31a.5.5,0,0,1,1,0v2.16h2.34v-2.16a.48.48,0,0,1,.49-.49.49.49,0,0,1,.5.49v5.31a.5.5,0,0,1-.5.5.49.49,0,0,1-.49-.5v-2.16h-2.34v2.16a.5.5,0,0,1-1,0Z" style="fill:#fff"></path><path d="M326,232.77l-1.85,2.53v2.43a.5.5,0,1,1-1,0V235.3l-1.83-2.53a.47.47,0,0,1,.1-.68.49.49,0,0,1,.69.11l1.53,2.1,1.54-2.1a.5.5,0,0,1,.81.57Z" style="fill:#fff"></path><rect x="56.69" y="269.75" width="386.62" height="0.5" style="fill:#fff"></rect><polygon points="116.58 334.42 84.52 334.28 84.6 316.78 116.65 316.92 116.58 334.42 116.58 334.42" style="fill:#FFC727"></polygon><path d="M90.89,320.17a2.21,2.21,0,0,1,0,3,1.94,1.94,0,0,1-1.44.63A2,2,0,0,1,88,323.2a2.17,2.17,0,0,1-.58-1.53,2.14,2.14,0,0,1,.6-1.51,2,2,0,0,1,1.47-.64A2,2,0,0,1,90.89,320.17Zm-.08,1.52a1.57,1.57,0,0,0-.4-1.05,1.31,1.31,0,0,0-1.93,0,1.53,1.53,0,0,0-.41,1.05,1.44,1.44,0,0,0,.41,1,1.26,1.26,0,0,0,1,.44,1.32,1.32,0,0,0,1-.43A1.53,1.53,0,0,0,90.81,321.69Z" style="fill:#fff"></path><path d="M94.06,322.23h-.74v1.3a.34.34,0,0,1-.34.33.32.32,0,0,1-.32-.33V320a.33.33,0,0,1,.33-.33h1.08a1.29,1.29,0,0,1,1.28,1.3A1.28,1.28,0,0,1,94.06,322.23Zm-.74-.67h.74a.62.62,0,1,0,0-1.24h-.74Z" style="fill:#fff"></path><path d="M96.16,323.54V320a.33.33,0,0,1,.33-.33h2a.34.34,0,0,1,.33.33.34.34,0,0,1-.34.34H96.84v1.1h1.4a.33.33,0,0,1,0,.66h-1.4v1.1h1.63a.33.33,0,0,1,0,.66h-2A.33.33,0,0,1,96.16,323.54Z" style="fill:#fff"></path><path d="M100.38,323.56a.35.35,0,0,1-.33.33.33.33,0,0,1-.33-.33l0-3.49h0a.32.32,0,0,1,.13-.28.34.34,0,0,1,.46.07l1.92,2.7v-2.48a.33.33,0,0,1,.66,0l0,3.48a.33.33,0,0,1-.58.21l0,0-1.9-2.67Z" style="fill:#fff"></path><path d="M104.17,320a.33.33,0,0,1,.33-.33.34.34,0,0,1,.34.33l0,3.54a.34.34,0,0,1-.67,0Z" style="fill:#fff"></path><path d="M106.61,323.59a.33.33,0,0,1-.33.33.34.34,0,0,1-.33-.34l0-3.48h0a.3.3,0,0,1,.13-.27.34.34,0,0,1,.46.07l1.92,2.69,0-2.47a.32.32,0,0,1,.32-.32.33.33,0,0,1,.33.32l0,3.49a.32.32,0,0,1-.57.21l0,0-1.91-2.67Z" style="fill:#fff"></path><path d="M110.1,321.78a2.2,2.2,0,0,1,2.23-2.16,2.17,2.17,0,0,1,1.36.48.34.34,0,1,1-.42.53,1.62,1.62,0,0,0-1-.32,1.5,1.5,0,0,0-1.53,1.47,1.41,1.41,0,0,0,.44,1,1.52,1.52,0,0,0,1.08.44,1.63,1.63,0,0,0,.82-.23v-.82h-.86a.34.34,0,0,1-.34-.34.34.34,0,0,1,.34-.34h1.2a.33.33,0,0,1,.34.33v1.33s0,.07,0,.1a0,0,0,0,0,0,0h0a.31.31,0,0,1-.12.14,2.22,2.22,0,0,1-3.57-1.7Z" style="fill:#fff"></path><path d="M87.47,329.81a.47.47,0,0,1,.66-.06,2.85,2.85,0,0,0,1.71.7,1.94,1.94,0,0,0,1.13-.33.8.8,0,0,0,.39-.64.55.55,0,0,0-.08-.29.76.76,0,0,0-.27-.27,3.61,3.61,0,0,0-1.23-.43h0a4.5,4.5,0,0,1-1.16-.36,2,2,0,0,1-.83-.7,1.36,1.36,0,0,1-.21-.74,1.7,1.7,0,0,1,.73-1.31,2.59,2.59,0,0,1,1.56-.47,3.48,3.48,0,0,1,2,.73.45.45,0,0,1,.12.64.46.46,0,0,1-.64.13,2.62,2.62,0,0,0-1.44-.59,1.71,1.71,0,0,0-1,.31.7.7,0,0,0-.35.56.46.46,0,0,0,.06.25.83.83,0,0,0,.25.24,3,3,0,0,0,1.12.4h0a5.31,5.31,0,0,1,1.24.38,2.08,2.08,0,0,1,.89.76,1.38,1.38,0,0,1,.22.76,1.75,1.75,0,0,1-.78,1.39,2.8,2.8,0,0,1-1.67.51,3.84,3.84,0,0,1-2.3-.91A.48.48,0,0,1,87.47,329.81Z" style="fill:#fff"></path><path d="M98.65,325.91a3.31,3.31,0,0,1,.9,2.28,3.26,3.26,0,0,1-.92,2.27,2.94,2.94,0,0,1-2.16,1,3.07,3.07,0,0,1-2.2-1,3.35,3.35,0,0,1,0-4.55,3,3,0,0,1,2.21-.95A2.89,2.89,0,0,1,98.65,325.91Zm-.13,2.28a2.28,2.28,0,0,0-.6-1.58A1.93,1.93,0,0,0,96.5,326a2,2,0,0,0-1.46.63,2.34,2.34,0,0,0,0,3.15,2,2,0,0,0,1.46.65,2,2,0,0,0,1.42-.64A2.29,2.29,0,0,0,98.52,328.19Z" style="fill:#fff"></path><path d="M106.21,325.94a3.31,3.31,0,0,1,0,4.56,3,3,0,0,1-2.16.95,3.06,3.06,0,0,1-2.2-1,3.37,3.37,0,0,1,0-4.56,3,3,0,0,1,2.21-.95A2.89,2.89,0,0,1,106.21,325.94Zm-.13,2.28a2.29,2.29,0,0,0-.6-1.58,2,2,0,0,0-1.42-.65,1.94,1.94,0,0,0-1.46.64,2.27,2.27,0,0,0-.62,1.57,2.3,2.3,0,0,0,.6,1.57,2,2,0,0,0,1.46.65,1.89,1.89,0,0,0,1.42-.64A2.27,2.27,0,0,0,106.08,328.22Z" style="fill:#fff"></path><path d="M109.63,331a.5.5,0,1,1-1,0l0-5.23h0a.47.47,0,0,1,.2-.41.5.5,0,0,1,.68.11l2.89,4,0-3.71a.49.49,0,0,1,1,0l0,5.23a.51.51,0,0,1-.5.49.47.47,0,0,1-.37-.18s0,0,0-.06l-2.87-4Z" style="fill:#fff"></path><g style="opacity:0.5"><polygon points="86.66 316 86.24 316.27 86.71 316.09 86.89 316.39 86.7 316.56 86.94 316.48 87.01 316.59 86.75 316.78 87.05 316.65 87.1 316.74 83.59 318.84 83.43 318.58 83.71 318.4 83.39 318.51 83.33 318.4 83.53 318.25 83.29 318.34 83.26 318.29 83.59 318.02 83.18 318.15 83.06 317.96 86.58 315.87 86.66 316" style="fill:#fff"></polygon><polygon points="117.84 318.73 117.45 318.43 117.77 318.81 117.55 319.08 117.33 318.95 117.48 319.15 117.39 319.26 117.14 319.08 117.35 319.31 117.28 319.39 114.21 316.78 114.41 316.56 114.67 316.75 114.46 316.49 114.54 316.4 114.75 316.54 114.59 316.35 114.63 316.3 114.98 316.52 114.73 316.17 114.87 316.01 117.94 318.61 117.84 318.73" style="fill:#fff"></polygon></g><g style="opacity:0.5"><polygon points="114.43 335.29 114.85 335.02 114.38 335.2 114.2 334.9 114.39 334.73 114.15 334.81 114.08 334.7 114.34 334.51 114.04 334.64 113.99 334.55 117.5 332.45 117.66 332.71 117.38 332.89 117.7 332.78 117.77 332.89 117.56 333.03 117.8 332.94 117.83 333 117.5 333.26 117.91 333.14 118.03 333.32 114.51 335.42 114.43 335.29" style="fill:#fff"></polygon><polygon points="83.25 332.56 83.64 332.86 83.32 332.48 83.55 332.21 83.76 332.33 83.61 332.13 83.7 332.03 83.96 332.21 83.75 331.98 83.81 331.9 86.88 334.5 86.68 334.73 86.43 334.54 86.63 334.79 86.55 334.89 86.34 334.75 86.5 334.94 86.46 334.99 86.11 334.77 86.36 335.11 86.22 335.28 83.15 332.68 83.25 332.56" style="fill:#fff"></polygon></g><path d="M158.55,303.36c-1.46,2-9.2,31.86-9.2,33.5s2.06,2.48,2.2,4.12-4,21.42-3.29,22.25,4.59,3.57,5.11,5.49.24,6.45,5.18,6.45a10.06,10.06,0,0,0,8.79-5.76c.69-1.79-1.1-14.83-1.1-16.48s3.4-1,3.49-5.36S162,302.68,162,302.68Z" style="fill:#FFC727"></path><path d="M167.32,331.46a34.16,34.16,0,0,1-12.15-17.69c1.51-5.34,2.86-9.69,3.38-10.41l3.43-.68S165,318.52,167.32,331.46Z" style="opacity:0.1"></path><g style="opacity:0.1"><path d="M167.6,351.5c-.72.44-1.36.72-1.36,1.43,0,0-3-18.07-2.6-19.09C164,333,166.73,346.94,167.6,351.5Z"></path><path d="M155.65,323.32c0,.77-4.1,17.66-4.1,17.66a3,3,0,0,0-.8-1.65C152.06,334.81,155.63,322.68,155.65,323.32Z"></path><path d="M153.57,369.73c-.07-.38-.13-.73-.21-1a6.6,6.6,0,0,0-1.82-2.53c.52-3.28,2.74-17.14,3.37-17.14S154.09,364.3,153.57,369.73Z"></path><path d="M157.8,341.4c-1,.55-2.28,12.18-1.54,12.52s1.22-5.85,1.63-6.36.79-.07,1.06-1.8S159,340.72,157.8,341.4Z"></path><path d="M162,328.46c-.82-.86-.79,6.91-.31,6.77S162.57,329.07,162,328.46Z"></path></g><path d="M270.44,303.36c1.47,2,9.2,31.86,9.2,33.5s-2.06,2.48-2.19,4.12,4,21.42,3.29,22.25-4.59,3.57-5.11,5.49-.24,6.45-5.19,6.45a10,10,0,0,1-8.78-5.76c-.69-1.79,1.09-14.83,1.09-16.48s-3.4-1-3.48-5.36S267,302.68,267,302.68Z" style="fill:#FFC727"></path><path d="M261.67,331.46a34.1,34.1,0,0,0,12.15-17.69c-1.51-5.34-2.85-9.69-3.37-10.41l-3.44-.68S264,318.52,261.67,331.46Z" style="opacity:0.1"></path><g style="opacity:0.1"><path d="M261.39,351.5c.73.44,1.36.72,1.36,1.43,0,0,3.05-18.07,2.61-19.09C265,333,262.27,346.94,261.39,351.5Z"></path><path d="M273.35,323.32c0,.77,4.1,17.66,4.1,17.66a3,3,0,0,1,.8-1.65C276.93,334.81,273.37,322.68,273.35,323.32Z"></path><path d="M275.43,369.73c.07-.38.12-.73.2-1a6.75,6.75,0,0,1,1.83-2.53c-.53-3.28-2.74-17.14-3.37-17.14S274.91,364.3,275.43,369.73Z"></path><path d="M271.2,341.4c.94.55,2.28,12.18,1.53,12.52s-1.21-5.85-1.62-6.36-.8-.07-1.07-1.8S270.05,340.72,271.2,341.4Z"></path><path d="M267,328.46c.82-.86.78,6.91.31,6.77S266.43,329.07,267,328.46Z"></path></g><path d="M155.39,298.22c4.17-1.16,38.41,8.46,58.83,9.23,30.79,1.16,59-8.71,60.53-7.34s.82,2.22,1,3.34a13,13,0,0,1-.18,4.91c-.42,1.55-20.89,33-59.83,31.49s-60.6-33.2-60.94-34.28a8.48,8.48,0,0,1,.12-3.18C155,301.38,152.31,299.08,155.39,298.22Z" style="fill:#FFC727"></path><g style="opacity:0.1"><path d="M159,299.56c4.08,1.45,8.21,2.74,12.37,3.93s8.34,2.3,12.55,3.27A178.51,178.51,0,0,0,209.46,311a128.42,128.42,0,0,0,25.85-.65q6.44-.75,12.81-2c4.25-.81,8.47-1.76,12.63-2.95a149.2,149.2,0,0,1-25.37,5.51,127.9,127.9,0,0,1-13,1.09,115.3,115.3,0,0,1-13-.26,170.74,170.74,0,0,1-25.63-4.38c-4.21-1.05-8.39-2.2-12.53-3.48S163,301.13,159,299.56Z"></path><path d="M272.81,307.75A82.17,82.17,0,0,1,256,324.22a62.71,62.71,0,0,1-21.19,10.31,76.35,76.35,0,0,1-11.72,1.73,81.94,81.94,0,0,1-11.83.09,66.91,66.91,0,0,1-11.68-1.8,52.5,52.5,0,0,1-5.63-1.77,32.51,32.51,0,0,1-5.33-2.53,32.26,32.26,0,0,0,5.39,2.36,52.15,52.15,0,0,0,5.66,1.59,67.06,67.06,0,0,0,11.63,1.57,88.48,88.48,0,0,0,11.74-.19,75,75,0,0,0,11.58-1.78,63.2,63.2,0,0,0,21-10.05,86.25,86.25,0,0,0,9.1-7.43A80.76,80.76,0,0,0,272.81,307.75Z"></path><path d="M160.51,308.94c2.75,2,5.57,3.91,8.41,5.78s5.71,3.71,8.63,5.44c5.83,3.46,11.84,6.76,18.28,8.8a109.12,109.12,0,0,0,20,3.68c3.38.31,6.78.43,10.18.43a76.92,76.92,0,0,0,10.17-.62,89.2,89.2,0,0,1-20.4.73,98.71,98.71,0,0,1-10.15-1.26c-1.69-.27-3.35-.67-5-1s-3.32-.78-5-1.27a57.74,57.74,0,0,1-9.48-3.93c-3-1.55-6-3.24-8.91-5A185.24,185.24,0,0,1,160.51,308.94Z"></path><path d="M219.83,328.4q4.65-.54,9.27-1.31c3.07-.52,6.13-1.09,9.17-1.81s6-1.47,9-2.35l2.23-.69c.75-.24,1.48-.51,2.21-.76,1.5-.46,2.92-1.1,4.4-1.62a69.11,69.11,0,0,1-8.66,3.62c-3,1-6,1.84-9,2.54s-6.14,1.24-9.25,1.64A83.73,83.73,0,0,1,219.83,328.4Z"></path></g><path d="M177.93,311.19a4.22,4.22,0,0,1-2.58,5.21,3.8,3.8,0,0,1-3-.11,3.91,3.91,0,0,1-2-2.36,4.27,4.27,0,0,1,2.59-5.21,3.87,3.87,0,0,1,3.07.14A3.72,3.72,0,0,1,177.93,311.19Zm-1.42,2.54a3,3,0,0,0,.19-2.15,2.5,2.5,0,0,0-1.26-1.54,2.55,2.55,0,0,0-2-.1,3,3,0,0,0-1.59,1.46,2.88,2.88,0,0,0-.19,2.14,2.54,2.54,0,0,0,1.3,1.57,2.48,2.48,0,0,0,2,.06A2.92,2.92,0,0,0,176.51,313.73Z" style="fill:#fff"></path><path d="M182,317.14l-1.31-.53-.92,2.32a.65.65,0,0,1-.84.35.63.63,0,0,1-.35-.82l2.51-6.3a.63.63,0,0,1,.82-.36h0l1.91.75a2.47,2.47,0,1,1-1.83,4.58Zm-.84-1.71,1.32.52a1.18,1.18,0,0,0,1.54-.65,1.19,1.19,0,0,0-.66-1.55l-1.32-.52Z" style="fill:#fff"></path><path d="M185.11,321l2.08-6.47a.62.62,0,0,1,.79-.4h0l3.55,1.13a.64.64,0,0,1-.39,1.22l-3-.95-.65,2,2.56.82a.65.65,0,0,1,.4.8.63.63,0,0,1-.79.42l-2.56-.82-.64,2,3,.95a.64.64,0,0,1-.39,1.22l-3.55-1.14s0,0,0,0h0A.64.64,0,0,1,185.11,321Z" style="fill:#fff"></path><path d="M193.22,323.38a.63.63,0,1,1-1.22-.28l1.49-6.51h0a.62.62,0,0,1,1.18-.13l2.47,5.84,1.06-4.61a.63.63,0,1,1,1.22.28l-1.49,6.51a.64.64,0,0,1-.76.47.62.62,0,0,1-.41-.33l0-.08-2.44-5.8Z" style="fill:#fff"></path><path d="M201.7,318.21a.61.61,0,0,1,.72-.52.65.65,0,0,1,.54.73l-1.08,6.69a.65.65,0,0,1-.74.53.63.63,0,0,1-.52-.73Z" style="fill:#fff"></path><path d="M205.61,325.62a.65.65,0,0,1-.67.58.63.63,0,0,1-.58-.69l.57-6.65v0a.6.6,0,0,1,.29-.5.63.63,0,0,1,.86.21l3.27,5.44.4-4.73a.62.62,0,0,1,.67-.56.63.63,0,0,1,.58.67l-.57,6.66a.64.64,0,0,1-.68.58.66.66,0,0,1-.45-.27.35.35,0,0,1-.05-.08l-3.24-5.4Z" style="fill:#fff"></path><path d="M212.67,322.67a4.18,4.18,0,0,1,4.11-4.29,4.27,4.27,0,0,1,2.65.81.66.66,0,1,1-.77,1.06,3,3,0,0,0-1.84-.56,2.83,2.83,0,0,0-2,.9,2.72,2.72,0,0,0,.13,4,2.82,2.82,0,0,0,2.09.77,3.05,3.05,0,0,0,1.56-.48l-.05-1.58-1.64.05a.65.65,0,0,1-.68-.63.64.64,0,0,1,.64-.66l2.26-.08h0a.65.65,0,0,1,.69.62l.08,2.55a1.11,1.11,0,0,1,0,.19s0,0,0,.06h0a.64.64,0,0,1-.21.29,4.3,4.3,0,0,1-2.59,1A4.19,4.19,0,0,1,212.67,322.67Z" style="fill:#fff"></path><path d="M226,323.87a.6.6,0,0,1,.82-.22,3.81,3.81,0,0,0,2.31.51,2.57,2.57,0,0,0,1.35-.66,1.09,1.09,0,0,0,.35-.9.72.72,0,0,0-.17-.35,1,1,0,0,0-.39-.28,4.62,4.62,0,0,0-1.65-.27h0a6.24,6.24,0,0,1-1.54-.19,2.41,2.41,0,0,1-1.2-.71,1.73,1.73,0,0,1-.42-.88,2.1,2.1,0,0,1,.63-1.81,3.38,3.38,0,0,1,1.86-.94,4.56,4.56,0,0,1,2.62.49.6.6,0,0,1-.48,1.09,3.29,3.29,0,0,0-2-.42,2.21,2.21,0,0,0-1.2.6.91.91,0,0,0-.31.79.55.55,0,0,0,.13.3,1.11,1.11,0,0,0,.36.25,4,4,0,0,0,1.5.26h0a7,7,0,0,1,1.65.21,2.74,2.74,0,0,1,1.29.75,1.79,1.79,0,0,1,.43.92,2.21,2.21,0,0,1-.67,1.92,3.61,3.61,0,0,1-2,1,5,5,0,0,1-3.1-.65A.61.61,0,0,1,226,323.87Z" style="fill:#fff"></path><path d="M239,316a4.22,4.22,0,0,1,1.4,5.65,3.73,3.73,0,0,1-2.37,1.85,3.89,3.89,0,0,1-3-.51,4.3,4.3,0,0,1-1.4-5.65,3.88,3.88,0,0,1,2.44-1.87A3.71,3.71,0,0,1,239,316Zm.56,2.86a3,3,0,0,0-1.25-1.76,2.45,2.45,0,0,0-2-.36,2.53,2.53,0,0,0-1.61,1.24,3,3,0,0,0-.27,2.14,2.9,2.9,0,0,0,1.24,1.76,2.52,2.52,0,0,0,2,.35,2.48,2.48,0,0,0,1.56-1.24A3,3,0,0,0,239.56,318.87Z" style="fill:#fff"></path><path d="M248.11,313.21a4.23,4.23,0,0,1,1.79,5.54,3.75,3.75,0,0,1-2.24,2,3.86,3.86,0,0,1-3.06-.3,4.16,4.16,0,0,1-2-2.42,4.24,4.24,0,0,1,.19-3.12,3.87,3.87,0,0,1,2.3-2A3.73,3.73,0,0,1,248.11,313.21Zm.75,2.82a3,3,0,0,0-1.36-1.68,2.48,2.48,0,0,0-3.5,1.13,3,3,0,0,0,1.23,3.82,2.45,2.45,0,0,0,3.5-1.13A2.9,2.9,0,0,0,248.86,316Z" style="fill:#fff"></path><path d="M254.44,317.74a.63.63,0,1,1-1.17.46L250.86,312h0a.62.62,0,0,1,.91-.78l5.32,3.45-1.71-4.41a.64.64,0,0,1,.35-.81.65.65,0,0,1,.82.35L259,316a.63.63,0,0,1-.36.81.61.61,0,0,1-.53,0s-.06,0-.07,0l-5.28-3.43Z" style="fill:#fff"></path><path d="M260.68,312.93l-1.83-4.27a.64.64,0,0,1,.33-.83.63.63,0,0,1,.82.34l1.84,4.27a.62.62,0,0,1-.33.82A.63.63,0,0,1,260.68,312.93Zm1.68,2.3a.64.64,0,0,1-.83-.33l-.09-.22a.63.63,0,1,1,1.15-.49l.09.21A.62.62,0,0,1,262.36,315.23Z" style="fill:#fff"></path></g><g id="freepik--Plants--inject-108"><path d="M52.26,439.08h37s-.09-5.51-3.73-7a5,5,0,0,0-5.8,1.39s-1.49-10.13-8.27-10.13-10,8.74-10,8.74A5.2,5.2,0,0,0,56.18,430C52.41,430.44,52.26,439.08,52.26,439.08Z" style="fill:#37474f"></path><path d="M425.16,439.08s-1.51-7-4.52-8.13-4.85,2.08-4.85,2.08-.71-6.73-5-8.75-7.48,2.11-7.48,2.11-3.28-8.53-9.14-8.53-8.82,12.49-8.82,12.49-3.45-3.72-7-1.62-3.54,10.35-3.54,10.35Z" style="fill:#37474f"></path><path d="M82.66,439.08h34.15s-1.12-4.82-3.39-5.16a3.35,3.35,0,0,0-3.32,1.89s.11-6.71-4.12-7.86-7.78,4.79-7.78,4.79-2.65-3.38-6.27-3.16-4.53,5.8-4.53,5.8S84.11,433.44,82.66,439.08Z" style="fill:#455a64"></path><path d="M447.74,439.08H419.85s.06-4.15,2.81-5.25a3.72,3.72,0,0,1,4.37,1s1.12-7.63,6.22-7.63,7.56,6.59,7.56,6.59a3.89,3.89,0,0,1,4-1.62C447.63,432.58,447.74,439.08,447.74,439.08Z" style="fill:#455a64"></path></g><g id="freepik--Balloons--inject-108"><rect x="296.13" y="322.68" width="0.58" height="110.31" transform="translate(-17.43 14.35) rotate(-2.69)" style="fill:#263238"></rect><path d="M310.52,302.39a28.79,28.79,0,0,1-7.09,11.42c-4.36,4.49-8.85,6.93-8.81,7.41.13,1.36,1.46,3.43,1.36,3.88s-1.22.91-2.15.91-2.05-.45-2.16-.91,1.23-2.52,1.36-3.88c.09-1-18.12-9.83-16.86-27.37.64-9,6.33-12.65,11.15-14.11a23.27,23.27,0,0,1,4.11-.84,22,22,0,0,1,2.4-.14c2.56,0,16.61.62,17.65,15.09A22.89,22.89,0,0,1,310.52,302.39Z" style="fill:#ebebeb"></path><path d="M294.62,321.22c.13,1.36,1.46,3.43,1.36,3.88s-1.22.91-2.15.91-2.05-.45-2.16-.91,1.23-2.52,1.36-3.88c.09-1-18.12-9.83-16.86-27.37.64-9,6.33-12.65,11.15-14.11-4.28,3.66-9.55,10.85-5.73,22.57a17.18,17.18,0,0,0,21.84,11.5C299.07,318.3,294.58,320.74,294.62,321.22Z" style="fill:#dbdbdb"></path><path d="M305.76,288.44a4.33,4.33,0,1,1-4.33-4.32A4.32,4.32,0,0,1,305.76,288.44Z" style="fill:#fff"></path><rect x="262.11" y="389.21" width="92.11" height="0.58" transform="translate(-133.12 617.41) rotate(-78.97)" style="fill:#263238"></rect><path d="M336,324.78a28.83,28.83,0,0,1-8.42,10.48c-4.88,3.92-9.64,5.8-9.65,6.28,0,1.37,1,3.58.87,4s-1.31.75-2.24.63-2-.69-2-1.16,1.52-2.35,1.82-3.69c.21-.94-16.79-12-13.41-29.22,1.74-8.85,7.82-11.78,12.79-12.64a22.7,22.7,0,0,1,4.18-.34,23.38,23.38,0,0,1,2.39.15c2.55.32,16.42,2.64,15.69,17.13A22.83,22.83,0,0,1,336,324.78Z" style="fill:#FFC727"></path><path d="M317.88,341.54c0,1.37,1,3.58.87,4s-1.31.75-2.24.63-2-.69-2-1.16,1.52-2.35,1.82-3.69c.21-.94-16.79-12-13.41-29.22,1.74-8.85,7.82-11.78,12.79-12.64-4.69,3.11-10.8,9.61-8.44,21.71a17.2,17.2,0,0,0,20.29,14.07C322.65,339.18,317.89,341.06,317.88,341.54Z" style="opacity:0.1"></path><path d="M333.16,310a4.32,4.32,0,1,1-4.32-4.32A4.31,4.31,0,0,1,333.16,310Z" style="fill:#fff"></path><rect x="299.07" y="368.4" width="0.58" height="69.92" style="fill:#263238"></rect><path d="M316,346.81a29,29,0,0,1-7.2,11.51c-4.33,4.41-8.74,6.81-8.69,7.28.13,1.36,1.46,3.43,1.35,3.88s-1.21.91-2.14.91-2.05-.45-2.16-.91,1.22-2.52,1.36-3.88c.09-1-18.12-9.83-16.86-27.37.65-9.08,6.42-12.71,11.26-14.15a22.66,22.66,0,0,1,4.08-.81,20.48,20.48,0,0,1,2.32-.14c2.56,0,16.61.63,17.65,15.1A23.1,23.1,0,0,1,316,346.81Z" style="fill:#455a64"></path><path d="M281.7,338.23c.65-9.08,6.42-12.71,11.26-14.15-4.31,3.61-9.77,10.85-5.9,22.72a17.19,17.19,0,0,0,21.78,11.52c-4.33,4.41-8.74,6.81-8.69,7.28.13,1.36,1.46,3.43,1.35,3.88s-1.21.91-2.14.91-2.05-.45-2.16-.91,1.22-2.52,1.36-3.88C298.65,364.64,280.44,355.77,281.7,338.23Z" style="fill:#37474f"></path><path d="M309.11,332.13a4.32,4.32,0,1,1-4.32-4.32A4.32,4.32,0,0,1,309.11,332.13Z" style="fill:#fff"></path><polygon points="307.3 439.07 291.13 439.07 287.76 412.34 310.67 412.34 307.3 439.07" style="fill:#dbdbdb"></polygon><polygon points="425.96 432.22 412.93 337.16 413.5 337.09 426.53 432.15 425.96 432.22" style="fill:#263238"></polygon><path d="M428.34,315.57a28.68,28.68,0,0,1-6.21,11.93c-4,4.81-8.31,7.58-8.23,8.05.23,1.35,1.71,3.31,1.64,3.77s-1.14,1-2.07,1.06-2.08-.29-2.22-.74,1-2.6,1.06-4c0-1-18.81-8.45-18.86-26,0-9,5.36-13.09,10.06-14.91a22.82,22.82,0,0,1,4-1.15,23.94,23.94,0,0,1,2.38-.32c2.56-.19,16.62-.62,18.74,13.73A23,23,0,0,1,428.34,315.57Z" style="fill:#FFC727"></path><path d="M413.9,335.55c.23,1.35,1.71,3.31,1.64,3.77s-1.14,1-2.07,1.06-2.08-.29-2.22-.74,1-2.6,1.06-4c0-1-18.81-8.45-18.86-26,0-9,5.36-13.09,10.06-14.91-4,4-8.71,11.54-4,22.94a17.18,17.18,0,0,0,22.64,9.83C418.12,332.31,413.82,335.08,413.9,335.55Z" style="opacity:0.1"></path><path d="M422.55,302a4.33,4.33,0,1,1-4.64-4A4.33,4.33,0,0,1,422.55,302Z" style="fill:#fff"></path><polygon points="424.43 433.06 423.86 433 434.76 320.69 435.34 320.75 424.43 433.06" style="fill:#263238"></polygon><path d="M452.43,299.76a28.75,28.75,0,0,1-7.57,11.11c-4.55,4.3-9.15,6.55-9.12,7,.07,1.36,1.31,3.49,1.19,3.94s-1.25.85-2.19.81-2-.54-2.11-1,1.33-2.46,1.52-3.82c.13-.95-17.69-10.59-15.68-28.07,1-9,6.86-12.36,11.74-13.62a23.55,23.55,0,0,1,4.14-.66,20.64,20.64,0,0,1,2.4,0c2.57.11,16.58,1.33,17,15.83A23.22,23.22,0,0,1,452.43,299.76Z" style="fill:#455a64"></path><path d="M435.74,317.9c.07,1.36,1.31,3.49,1.19,3.94s-1.25.85-2.19.81-2-.54-2.11-1,1.33-2.46,1.52-3.82c.13-.95-17.69-10.59-15.68-28.07,1-9,6.86-12.36,11.74-13.62-4.43,3.47-10,10.44-6.69,22.31a17.19,17.19,0,0,0,21.34,12.42C440.31,315.17,435.71,317.42,435.74,317.9Z" style="fill:#37474f"></path><path d="M448.48,285.24a4.32,4.32,0,1,1-4.66-4A4.33,4.33,0,0,1,448.48,285.24Z" style="fill:#fff"></path><rect x="424.93" y="360.72" width="0.58" height="69.92" style="fill:#263238"></rect><path d="M441.9,339.14a28.93,28.93,0,0,1-7.2,11.51c-4.33,4.41-8.73,6.8-8.69,7.27.14,1.36,1.46,3.44,1.36,3.89s-1.22.9-2.15.9-2.05-.45-2.15-.9,1.22-2.53,1.35-3.89c.09-.95-18.12-9.82-16.86-27.37.65-9.07,6.42-12.7,11.26-14.14a23.88,23.88,0,0,1,4.08-.82,22.58,22.58,0,0,1,2.32-.13c2.56,0,16.61.63,17.65,15.09A23.13,23.13,0,0,1,441.9,339.14Z" style="fill:#ebebeb"></path><path d="M407.56,330.55c.65-9.07,6.42-12.7,11.26-14.14-4.3,3.61-9.76,10.84-5.9,22.72a17.19,17.19,0,0,0,21.78,11.52c-4.33,4.41-8.73,6.8-8.69,7.27.14,1.36,1.46,3.44,1.36,3.89s-1.22.9-2.15.9-2.05-.45-2.15-.9,1.22-2.53,1.35-3.89C424.51,357,406.3,348.1,407.56,330.55Z" style="fill:#dbdbdb"></path><path d="M435,324.46a4.33,4.33,0,1,1-4.33-4.32A4.32,4.32,0,0,1,435,324.46Z" style="fill:#fff"></path><polygon points="433.73 439.07 417.57 439.07 414.19 412.34 437.11 412.34 433.73 439.07" style="fill:#dbdbdb"></polygon></g></svg>