<svg width="151" height="151" viewBox="0 0 151 151" fill="none" xmlns="http://www.w3.org/2000/svg">
<circle cx="75.3159" cy="75.9373" r="75" fill="#253342"/>
<circle cx="75.3159" cy="75.9373" r="37.5" fill="#48C9B0"/>
<g filter="url(#filter0_d_102_1950)">
<path d="M103.458 70.0561C104.809 69.7737 105.686 68.4451 105.296 67.1204C103.353 60.5128 99.2723 54.7067 93.6583 50.6367C87.3673 46.0758 79.6027 44.0223 71.8795 44.8768C64.1562 45.7313 57.0283 49.4325 51.8864 55.2583C46.7445 61.0841 43.9575 68.6165 44.0691 76.3861C44.1808 84.1557 47.183 91.605 52.4901 97.2807C57.7972 102.956 65.0285 106.451 72.7731 107.084C80.5177 107.716 88.2201 105.44 94.3775 100.7C99.8722 96.4709 103.785 90.55 105.537 83.8893C105.889 82.554 104.974 81.2511 103.615 81.0076L101.47 80.6232C100.111 80.3797 98.8245 81.2895 98.4415 82.616C97.0251 87.5206 94.0778 91.8712 89.9983 95.0114C85.2555 98.6622 79.3226 100.415 73.3573 99.9281C67.3919 99.441 61.8219 96.749 57.7341 92.3773C53.6462 88.0055 51.3338 82.2676 51.2478 76.283C51.1618 70.2984 53.3085 64.4964 57.2691 60.0091C61.2297 55.5217 66.72 52.6708 72.669 52.0126C78.6179 51.3544 84.5986 52.9362 89.4444 56.4493C93.6123 59.471 96.6834 63.7351 98.2401 68.597C98.6611 69.9119 99.9732 70.7844 101.325 70.502L103.458 70.0561Z" fill="#E4F7F3"/>
</g>
<circle cx="75.3159" cy="75.9373" r="70" stroke="#48C9B0" stroke-width="2.5"/>
<circle cx="75.3159" cy="75.9373" r="57.5" stroke="#48C9B0" stroke-width="2.5"/>
<g filter="url(#filter1_i_102_1950)">
<path d="M83.0659 122.881C83.0659 127.024 78.2081 129.881 74.0659 129.881C69.9238 129.881 65.8159 127.024 65.8159 122.881C65.8159 118.739 71.1738 115.381 75.3159 115.381C79.4581 115.381 83.0659 118.739 83.0659 122.881Z" fill="#D35400"/>
</g>
<g filter="url(#filter2_i_102_1950)">
<path d="M108.792 112.592C110.277 116.459 106.766 120.868 102.899 122.353C99.0315 123.837 94.1723 122.641 92.6879 118.774C91.2035 114.907 95.0021 109.852 98.8691 108.368C102.736 106.884 107.308 108.725 108.792 112.592Z" fill="#D35400"/>
</g>
<g filter="url(#filter3_i_102_1950)">
<path d="M124.27 92.9621C126.526 96.436 124.008 101.479 120.535 103.735C117.061 105.991 112.059 105.831 109.803 102.357C107.547 98.8832 110.212 93.149 113.686 90.893C117.16 88.6371 122.014 89.4882 124.27 92.9621Z" fill="#48C9B0"/>
</g>
<g filter="url(#filter4_i_102_1950)">
<path d="M128.176 68.7779C131.105 71.7069 129.691 77.1627 126.762 80.0916C123.833 83.0206 118.907 83.9045 115.978 80.9755C113.049 78.0466 114.464 71.8836 117.393 68.9547C120.322 66.0258 125.247 65.849 128.176 68.7779Z" fill="#EDFAF7"/>
</g>
<g filter="url(#filter5_i_102_1950)">
<path d="M119.653 44.1069C123.407 45.8575 123.945 51.468 122.194 55.222C120.443 58.9761 116.117 61.4913 112.363 59.7407C108.609 57.9902 107.83 51.7152 109.581 47.9612C111.331 44.2071 115.899 42.3564 119.653 44.1069Z" fill="#48C9B0"/>
</g>
<g filter="url(#filter6_i_102_1950)">
<path d="M98.7021 28.1528C102.781 27.4335 106.439 31.7213 107.159 35.8005C107.878 39.8797 105.777 44.4214 101.697 45.1407C97.6183 45.86 93.381 41.1666 92.6618 37.0874C91.9425 33.0082 94.6228 28.8721 98.7021 28.1528Z" fill="#48C9B0"/>
</g>
<g filter="url(#filter7_i_102_1950)">
<path d="M84.7375 29.8101C84.7375 33.9522 79.8797 36.8101 75.7375 36.8101C71.5954 36.8101 67.4875 33.9522 67.4875 29.8101C67.4875 25.6679 72.8454 22.3101 76.9875 22.3101C81.1297 22.3101 84.7375 25.6679 84.7375 29.8101Z" fill="#D35400"/>
</g>
<g filter="url(#filter8_i_102_1950)">
<path d="M41.46 39.4149C40.0433 35.5226 43.6308 31.1756 47.5231 29.7589C51.4154 28.3422 56.253 29.6228 57.6697 33.5151C59.0864 37.4074 55.2001 42.3953 51.3078 43.812C47.4154 45.2287 42.8767 43.3073 41.46 39.4149Z" fill="#D35400"/>
</g>
<g filter="url(#filter9_i_102_1950)">
<path d="M28.7657 58.8346C25.8368 55.9056 27.251 50.4498 30.1799 47.5209C33.1088 44.5919 38.0344 43.7081 40.9633 46.637C43.8922 49.5659 42.478 55.7289 39.5491 58.6578C36.6201 61.5867 31.6946 61.7635 28.7657 58.8346Z" fill="#48C9B0"/>
</g>
<g filter="url(#filter10_i_102_1950)">
<path d="M28.5906 83.2876C24.4484 83.2876 21.5906 78.4297 21.5906 74.2876C21.5906 70.1454 24.4484 66.0376 28.5906 66.0376C32.7327 66.0376 36.0906 71.3954 36.0906 75.5376C36.0906 79.6797 32.7327 83.2876 28.5906 83.2876Z" fill="#EDFAF7"/>
</g>
<g filter="url(#filter11_i_102_1950)">
<path d="M29.2417 89.5442C32.7273 87.3064 37.7567 89.8504 39.9945 93.336C42.2322 96.8217 42.0466 101.822 38.561 104.06C35.0753 106.298 29.3551 103.603 27.1173 100.118C24.8795 96.6321 25.7561 91.782 29.2417 89.5442Z" fill="#48C9B0"/>
</g>
<g filter="url(#filter12_i_102_1950)">
<path d="M42.8315 108.924C45.8408 106.078 51.2552 107.643 54.1014 110.653C56.9476 113.662 57.694 118.61 54.6847 121.456C51.6753 124.303 45.5541 122.717 42.7079 119.708C39.8617 116.699 39.8221 111.77 42.8315 108.924Z" fill="#48C9B0"/>
</g>
<defs>
<filter id="filter0_d_102_1950" x="42.5659" y="43.6872" width="65.0469" height="66.0002" filterUnits="userSpaceOnUse" color-interpolation-filters="sRGB">
<feFlood flood-opacity="0" result="BackgroundImageFix"/>
<feColorMatrix in="SourceAlpha" type="matrix" values="0 0 0 0 0 0 0 0 0 0 0 0 0 0 0 0 0 0 127 0" result="hardAlpha"/>
<feMorphology radius="0.25" operator="dilate" in="SourceAlpha" result="effect1_dropShadow_102_1950"/>
<feOffset dx="0.25" dy="0.75"/>
<feGaussianBlur stdDeviation="0.75"/>
<feComposite in2="hardAlpha" operator="out"/>
<feColorMatrix type="matrix" values="0 0 0 0 0.137255 0 0 0 0 0.188235 0 0 0 0 0.243137 0 0 0 0.8 0"/>
<feBlend mode="normal" in2="BackgroundImageFix" result="effect1_dropShadow_102_1950"/>
<feBlend mode="normal" in="SourceGraphic" in2="effect1_dropShadow_102_1950" result="shape"/>
</filter>
<filter id="filter1_i_102_1950" x="65.8159" y="115.382" width="17.25" height="15.5" filterUnits="userSpaceOnUse" color-interpolation-filters="sRGB">
<feFlood flood-opacity="0" result="BackgroundImageFix"/>
<feBlend mode="normal" in="SourceGraphic" in2="BackgroundImageFix" result="shape"/>
<feColorMatrix in="SourceAlpha" type="matrix" values="0 0 0 0 0 0 0 0 0 0 0 0 0 0 0 0 0 0 127 0" result="hardAlpha"/>
<feOffset dy="1"/>
<feGaussianBlur stdDeviation="1"/>
<feComposite in2="hardAlpha" operator="arithmetic" k2="-1" k3="1"/>
<feColorMatrix type="matrix" values="0 0 0 0 0.168627 0 0 0 0 0.47451 0 0 0 0 0.415686 0 0 0 0.7 0"/>
<feBlend mode="darken" in2="shape" result="effect1_innerShadow_102_1950"/>
</filter>
<filter id="filter2_i_102_1950" x="92.3589" y="107.856" width="16.7811" height="16.114" filterUnits="userSpaceOnUse" color-interpolation-filters="sRGB">
<feFlood flood-opacity="0" result="BackgroundImageFix"/>
<feBlend mode="normal" in="SourceGraphic" in2="BackgroundImageFix" result="shape"/>
<feColorMatrix in="SourceAlpha" type="matrix" values="0 0 0 0 0 0 0 0 0 0 0 0 0 0 0 0 0 0 127 0" result="hardAlpha"/>
<feOffset dy="1"/>
<feGaussianBlur stdDeviation="1"/>
<feComposite in2="hardAlpha" operator="arithmetic" k2="-1" k3="1"/>
<feColorMatrix type="matrix" values="0 0 0 0 0.168627 0 0 0 0 0.47451 0 0 0 0 0.415686 0 0 0 0.7 0"/>
<feBlend mode="darken" in2="shape" result="effect1_innerShadow_102_1950"/>
</filter>
<filter id="filter3_i_102_1950" x="108.969" y="89.6403" width="16.16" height="16.5931" filterUnits="userSpaceOnUse" color-interpolation-filters="sRGB">
<feFlood flood-opacity="0" result="BackgroundImageFix"/>
<feBlend mode="normal" in="SourceGraphic" in2="BackgroundImageFix" result="shape"/>
<feColorMatrix in="SourceAlpha" type="matrix" values="0 0 0 0 0 0 0 0 0 0 0 0 0 0 0 0 0 0 127 0" result="hardAlpha"/>
<feOffset dy="1"/>
<feGaussianBlur stdDeviation="1"/>
<feComposite in2="hardAlpha" operator="arithmetic" k2="-1" k3="1"/>
<feColorMatrix type="matrix" values="0 0 0 0 0.168627 0 0 0 0 0.47451 0 0 0 0 0.415686 0 0 0 0.7 0"/>
<feBlend mode="darken" in2="shape" result="effect1_innerShadow_102_1950"/>
</filter>
<filter id="filter4_i_102_1950" x="114.365" y="66.6676" width="15.4236" height="17.1119" filterUnits="userSpaceOnUse" color-interpolation-filters="sRGB">
<feFlood flood-opacity="0" result="BackgroundImageFix"/>
<feBlend mode="normal" in="SourceGraphic" in2="BackgroundImageFix" result="shape"/>
<feColorMatrix in="SourceAlpha" type="matrix" values="0 0 0 0 0 0 0 0 0 0 0 0 0 0 0 0 0 0 127 0" result="hardAlpha"/>
<feOffset dy="1"/>
<feGaussianBlur stdDeviation="1"/>
<feComposite in2="hardAlpha" operator="arithmetic" k2="-1" k3="1"/>
<feColorMatrix type="matrix" values="0 0 0 0 0.168627 0 0 0 0 0.47451 0 0 0 0 0.415686 0 0 0 0.7 0"/>
<feBlend mode="darken" in2="shape" result="effect1_innerShadow_102_1950"/>
</filter>
<filter id="filter5_i_102_1950" x="108.69" y="43.442" width="14.462" height="17.867" filterUnits="userSpaceOnUse" color-interpolation-filters="sRGB">
<feFlood flood-opacity="0" result="BackgroundImageFix"/>
<feBlend mode="normal" in="SourceGraphic" in2="BackgroundImageFix" result="shape"/>
<feColorMatrix in="SourceAlpha" type="matrix" values="0 0 0 0 0 0 0 0 0 0 0 0 0 0 0 0 0 0 127 0" result="hardAlpha"/>
<feOffset dy="1"/>
<feGaussianBlur stdDeviation="1"/>
<feComposite in2="hardAlpha" operator="arithmetic" k2="-1" k3="1"/>
<feColorMatrix type="matrix" values="0 0 0 0 0.168627 0 0 0 0 0.47451 0 0 0 0 0.415686 0 0 0 0.7 0"/>
<feBlend mode="darken" in2="shape" result="effect1_innerShadow_102_1950"/>
</filter>
<filter id="filter6_i_102_1950" x="92.5452" y="28.0732" width="14.7528" height="18.1411" filterUnits="userSpaceOnUse" color-interpolation-filters="sRGB">
<feFlood flood-opacity="0" result="BackgroundImageFix"/>
<feBlend mode="normal" in="SourceGraphic" in2="BackgroundImageFix" result="shape"/>
<feColorMatrix in="SourceAlpha" type="matrix" values="0 0 0 0 0 0 0 0 0 0 0 0 0 0 0 0 0 0 127 0" result="hardAlpha"/>
<feOffset dy="1"/>
<feGaussianBlur stdDeviation="1"/>
<feComposite in2="hardAlpha" operator="arithmetic" k2="-1" k3="1"/>
<feColorMatrix type="matrix" values="0 0 0 0 0.168627 0 0 0 0 0.47451 0 0 0 0 0.415686 0 0 0 0.7 0"/>
<feBlend mode="darken" in2="shape" result="effect1_innerShadow_102_1950"/>
</filter>
<filter id="filter7_i_102_1950" x="67.4875" y="22.3101" width="17.25" height="15.5" filterUnits="userSpaceOnUse" color-interpolation-filters="sRGB">
<feFlood flood-opacity="0" result="BackgroundImageFix"/>
<feBlend mode="normal" in="SourceGraphic" in2="BackgroundImageFix" result="shape"/>
<feColorMatrix in="SourceAlpha" type="matrix" values="0 0 0 0 0 0 0 0 0 0 0 0 0 0 0 0 0 0 127 0" result="hardAlpha"/>
<feOffset dy="1"/>
<feGaussianBlur stdDeviation="1"/>
<feComposite in2="hardAlpha" operator="arithmetic" k2="-1" k3="1"/>
<feColorMatrix type="matrix" values="0 0 0 0 0.168627 0 0 0 0 0.47451 0 0 0 0 0.415686 0 0 0 0.7 0"/>
<feBlend mode="darken" in2="shape" result="effect1_innerShadow_102_1950"/>
</filter>
<filter id="filter8_i_102_1950" x="41.1443" y="29.1993" width="16.8234" height="16.0776" filterUnits="userSpaceOnUse" color-interpolation-filters="sRGB">
<feFlood flood-opacity="0" result="BackgroundImageFix"/>
<feBlend mode="normal" in="SourceGraphic" in2="BackgroundImageFix" result="shape"/>
<feColorMatrix in="SourceAlpha" type="matrix" values="0 0 0 0 0 0 0 0 0 0 0 0 0 0 0 0 0 0 127 0" result="hardAlpha"/>
<feOffset dy="1"/>
<feGaussianBlur stdDeviation="1"/>
<feComposite in2="hardAlpha" operator="arithmetic" k2="-1" k3="1"/>
<feColorMatrix type="matrix" values="0 0 0 0 0.168627 0 0 0 0 0.47451 0 0 0 0 0.415686 0 0 0 0.7 0"/>
<feBlend mode="darken" in2="shape" result="effect1_innerShadow_102_1950"/>
</filter>
<filter id="filter9_i_102_1950" x="27.1527" y="44.8329" width="15.4236" height="17.1119" filterUnits="userSpaceOnUse" color-interpolation-filters="sRGB">
<feFlood flood-opacity="0" result="BackgroundImageFix"/>
<feBlend mode="normal" in="SourceGraphic" in2="BackgroundImageFix" result="shape"/>
<feColorMatrix in="SourceAlpha" type="matrix" values="0 0 0 0 0 0 0 0 0 0 0 0 0 0 0 0 0 0 127 0" result="hardAlpha"/>
<feOffset dy="1"/>
<feGaussianBlur stdDeviation="1"/>
<feComposite in2="hardAlpha" operator="arithmetic" k2="-1" k3="1"/>
<feColorMatrix type="matrix" values="0 0 0 0 0.168627 0 0 0 0 0.47451 0 0 0 0 0.415686 0 0 0 0.7 0"/>
<feBlend mode="darken" in2="shape" result="effect1_innerShadow_102_1950"/>
</filter>
<filter id="filter10_i_102_1950" x="21.5906" y="66.0376" width="14.5" height="18.25" filterUnits="userSpaceOnUse" color-interpolation-filters="sRGB">
<feFlood flood-opacity="0" result="BackgroundImageFix"/>
<feBlend mode="normal" in="SourceGraphic" in2="BackgroundImageFix" result="shape"/>
<feColorMatrix in="SourceAlpha" type="matrix" values="0 0 0 0 0 0 0 0 0 0 0 0 0 0 0 0 0 0 127 0" result="hardAlpha"/>
<feOffset dy="1"/>
<feGaussianBlur stdDeviation="1"/>
<feComposite in2="hardAlpha" operator="arithmetic" k2="-1" k3="1"/>
<feColorMatrix type="matrix" values="0 0 0 0 0.168627 0 0 0 0 0.47451 0 0 0 0 0.415686 0 0 0 0.7 0"/>
<feBlend mode="darken" in2="shape" result="effect1_innerShadow_102_1950"/>
</filter>
<filter id="filter11_i_102_1950" x="25.8868" y="88.701" width="15.5804" height="17.1776" filterUnits="userSpaceOnUse" color-interpolation-filters="sRGB">
<feFlood flood-opacity="0" result="BackgroundImageFix"/>
<feBlend mode="normal" in="SourceGraphic" in2="BackgroundImageFix" result="shape"/>
<feColorMatrix in="SourceAlpha" type="matrix" values="0 0 0 0 0 0 0 0 0 0 0 0 0 0 0 0 0 0 127 0" result="hardAlpha"/>
<feOffset dy="1"/>
<feGaussianBlur stdDeviation="1"/>
<feComposite in2="hardAlpha" operator="arithmetic" k2="-1" k3="1"/>
<feColorMatrix type="matrix" values="0 0 0 0 0.168627 0 0 0 0 0.47451 0 0 0 0 0.415686 0 0 0 0.7 0"/>
<feBlend mode="darken" in2="shape" result="effect1_innerShadow_102_1950"/>
</filter>
<filter id="filter12_i_102_1950" x="40.5737" y="107.426" width="16.0432" height="16.522" filterUnits="userSpaceOnUse" color-interpolation-filters="sRGB">
<feFlood flood-opacity="0" result="BackgroundImageFix"/>
<feBlend mode="normal" in="SourceGraphic" in2="BackgroundImageFix" result="shape"/>
<feColorMatrix in="SourceAlpha" type="matrix" values="0 0 0 0 0 0 0 0 0 0 0 0 0 0 0 0 0 0 127 0" result="hardAlpha"/>
<feOffset dy="1"/>
<feGaussianBlur stdDeviation="1"/>
<feComposite in2="hardAlpha" operator="arithmetic" k2="-1" k3="1"/>
<feColorMatrix type="matrix" values="0 0 0 0 0.168627 0 0 0 0 0.47451 0 0 0 0 0.415686 0 0 0 0.7 0"/>
<feBlend mode="darken" in2="shape" result="effect1_innerShadow_102_1950"/>
</filter>
</defs>
</svg>
