<svg width="600" height="600" viewBox="0 0 600 600" fill="none" xmlns="http://www.w3.org/2000/svg">
<circle cx="300" cy="300" r="300" fill="#253342"/>
<circle cx="300" cy="300" r="150" fill="#48C9B0"/>
<g filter="url(#filter0_d_19_60)">
<path d="M412.568 276.476C417.974 275.346 421.48 270.031 419.922 264.733C412.15 238.302 395.825 215.078 373.37 198.798C348.206 180.554 317.147 172.34 286.254 175.758C255.361 179.176 226.85 193.981 206.282 217.284C185.714 240.587 174.566 270.717 175.013 301.795C175.459 332.874 187.468 362.671 208.697 385.374C229.925 408.077 258.85 422.056 289.829 424.585C320.807 427.115 351.617 418.012 376.246 399.053C398.225 382.135 413.876 358.451 420.886 331.808C422.291 326.467 418.634 321.255 413.197 320.281L404.617 318.744C399.18 317.77 394.035 321.409 392.502 326.715C386.837 346.333 375.047 363.736 358.73 376.296C339.758 390.9 316.027 397.911 292.165 395.963C268.304 394.015 246.024 383.247 229.673 365.76C213.321 348.273 204.071 325.321 203.727 301.383C203.384 277.445 211.97 254.237 227.813 236.287C243.655 218.338 265.616 206.934 289.412 204.301C313.208 201.669 337.131 207.996 356.514 222.048C373.186 234.135 385.47 251.191 391.697 270.639C393.381 275.899 398.629 279.389 404.035 278.259L412.568 276.476Z" fill="#E4F7F3"/>
</g>
<circle cx="300" cy="300" r="280" stroke="#48C9B0" stroke-width="10"/>
<circle cx="300" cy="300" r="230" stroke="#48C9B0" stroke-width="10"/>
<g filter="url(#filter1_i_19_60)">
<path d="M331 487.777C331 504.345 311.569 515.777 295 515.777C278.431 515.777 262 504.345 262 487.777C262 471.208 283.431 457.777 300 457.777C316.569 457.777 331 471.208 331 487.777Z" fill="#D35400"/>
</g>
<g filter="url(#filter2_i_19_60)">
<path d="M433.905 446.621C439.843 462.089 425.798 479.725 410.33 485.662C394.862 491.6 375.425 486.816 369.488 471.348C363.55 455.88 378.745 435.66 394.213 429.723C409.681 423.785 427.967 431.153 433.905 446.621Z" fill="#D35400"/>
</g>
<g filter="url(#filter3_i_19_60)">
<path d="M495.817 368.099C504.841 381.995 494.77 402.165 480.875 411.189C466.979 420.213 446.972 419.575 437.949 405.679C428.925 391.784 439.583 368.847 453.479 359.823C467.374 350.799 486.793 354.204 495.817 368.099Z" fill="#48C9B0"/>
</g>
<g filter="url(#filter4_i_19_60)">
<path d="M511.44 271.363C523.156 283.078 517.499 304.902 505.783 316.618C494.068 328.333 474.366 331.869 462.65 320.153C450.934 308.437 456.591 283.786 468.307 272.07C480.023 260.354 499.725 259.647 511.44 271.363Z" fill="#EDFAF7"/>
</g>
<g filter="url(#filter5_i_19_60)">
<path d="M477.35 172.679C492.366 179.681 494.515 202.123 487.512 217.139C480.51 232.155 463.206 242.216 448.189 235.214C433.173 228.212 430.057 203.112 437.06 188.096C444.062 173.079 462.334 165.676 477.35 172.679Z" fill="#48C9B0"/>
</g>
<g filter="url(#filter6_i_19_60)">
<path d="M393.544 108.862C409.861 105.985 424.493 123.136 427.37 139.453C430.247 155.77 421.843 173.937 405.526 176.814C389.209 179.691 372.26 160.917 369.383 144.601C366.506 128.284 377.227 111.739 393.544 108.862Z" fill="#48C9B0"/>
</g>
<g filter="url(#filter7_i_19_60)">
<path d="M337.686 115.491C337.686 132.06 318.255 143.491 301.686 143.491C285.118 143.491 268.686 132.06 268.686 115.491C268.686 98.9228 290.118 85.4913 306.686 85.4913C323.255 85.4913 337.686 98.9228 337.686 115.491Z" fill="#D35400"/>
</g>
<g filter="url(#filter8_i_19_60)">
<path d="M164.577 153.911C158.91 138.341 173.26 120.953 188.829 115.287C204.398 109.62 223.749 114.742 229.415 130.311C235.082 145.881 219.537 165.832 203.968 171.499C188.398 177.166 170.243 169.48 164.577 153.911Z" fill="#D35400"/>
</g>
<g filter="url(#filter9_i_19_60)">
<path d="M113.799 231.589C102.083 219.874 107.74 198.05 119.456 186.334C131.171 174.619 150.874 171.083 162.589 182.799C174.305 194.515 168.648 219.166 156.932 230.882C145.217 242.598 125.515 243.305 113.799 231.589Z" fill="#48C9B0"/>
</g>
<g filter="url(#filter10_i_19_60)">
<path d="M113.099 329.401C96.5301 329.401 85.0987 309.97 85.0987 293.401C85.0987 276.833 96.5301 260.401 113.099 260.401C129.667 260.401 143.099 281.833 143.099 298.401C143.099 314.97 129.667 329.401 113.099 329.401Z" fill="#EDFAF7"/>
</g>
<g filter="url(#filter11_i_19_60)">
<path d="M115.703 354.428C129.646 345.477 149.763 355.653 158.714 369.595C167.665 383.538 166.923 403.541 152.98 412.492C139.038 421.443 116.157 410.664 107.206 396.722C98.2546 382.779 101.761 363.379 115.703 354.428Z" fill="#48C9B0"/>
</g>
<g filter="url(#filter12_i_19_60)">
<path d="M170.062 431.947C182.1 420.562 203.757 426.824 215.142 438.862C226.527 450.899 229.513 470.692 217.475 482.077C205.438 493.462 180.953 487.121 169.568 475.083C158.183 463.046 158.025 443.332 170.062 431.947Z" fill="#48C9B0"/>
</g>
<defs>
<filter id="filter0_d_19_60" x="169" y="171" width="260.188" height="264.001" filterUnits="userSpaceOnUse" color-interpolation-filters="sRGB">
<feFlood flood-opacity="0" result="BackgroundImageFix"/>
<feColorMatrix in="SourceAlpha" type="matrix" values="0 0 0 0 0 0 0 0 0 0 0 0 0 0 0 0 0 0 127 0" result="hardAlpha"/>
<feMorphology radius="1" operator="dilate" in="SourceAlpha" result="effect1_dropShadow_19_60"/>
<feOffset dx="1" dy="3"/>
<feGaussianBlur stdDeviation="3"/>
<feComposite in2="hardAlpha" operator="out"/>
<feColorMatrix type="matrix" values="0 0 0 0 0.137255 0 0 0 0 0.188235 0 0 0 0 0.243137 0 0 0 0.8 0"/>
<feBlend mode="normal" in2="BackgroundImageFix" result="effect1_dropShadow_19_60"/>
<feBlend mode="normal" in="SourceGraphic" in2="effect1_dropShadow_19_60" result="shape"/>
</filter>
<filter id="filter1_i_19_60" x="262" y="457.777" width="69" height="62" filterUnits="userSpaceOnUse" color-interpolation-filters="sRGB">
<feFlood flood-opacity="0" result="BackgroundImageFix"/>
<feBlend mode="normal" in="SourceGraphic" in2="BackgroundImageFix" result="shape"/>
<feColorMatrix in="SourceAlpha" type="matrix" values="0 0 0 0 0 0 0 0 0 0 0 0 0 0 0 0 0 0 127 0" result="hardAlpha"/>
<feOffset dy="4"/>
<feGaussianBlur stdDeviation="4"/>
<feComposite in2="hardAlpha" operator="arithmetic" k2="-1" k3="1"/>
<feColorMatrix type="matrix" values="0 0 0 0 0.168627 0 0 0 0 0.47451 0 0 0 0 0.415686 0 0 0 0.7 0"/>
<feBlend mode="darken" in2="shape" result="effect1_innerShadow_19_60"/>
</filter>
<filter id="filter2_i_19_60" x="368.172" y="427.673" width="67.1246" height="64.4558" filterUnits="userSpaceOnUse" color-interpolation-filters="sRGB">
<feFlood flood-opacity="0" result="BackgroundImageFix"/>
<feBlend mode="normal" in="SourceGraphic" in2="BackgroundImageFix" result="shape"/>
<feColorMatrix in="SourceAlpha" type="matrix" values="0 0 0 0 0 0 0 0 0 0 0 0 0 0 0 0 0 0 127 0" result="hardAlpha"/>
<feOffset dy="4"/>
<feGaussianBlur stdDeviation="4"/>
<feComposite in2="hardAlpha" operator="arithmetic" k2="-1" k3="1"/>
<feColorMatrix type="matrix" values="0 0 0 0 0.168627 0 0 0 0 0.47451 0 0 0 0 0.415686 0 0 0 0.7 0"/>
<feBlend mode="darken" in2="shape" result="effect1_innerShadow_19_60"/>
</filter>
<filter id="filter3_i_19_60" x="434.612" y="354.812" width="64.6402" height="66.3726" filterUnits="userSpaceOnUse" color-interpolation-filters="sRGB">
<feFlood flood-opacity="0" result="BackgroundImageFix"/>
<feBlend mode="normal" in="SourceGraphic" in2="BackgroundImageFix" result="shape"/>
<feColorMatrix in="SourceAlpha" type="matrix" values="0 0 0 0 0 0 0 0 0 0 0 0 0 0 0 0 0 0 127 0" result="hardAlpha"/>
<feOffset dy="4"/>
<feGaussianBlur stdDeviation="4"/>
<feComposite in2="hardAlpha" operator="arithmetic" k2="-1" k3="1"/>
<feColorMatrix type="matrix" values="0 0 0 0 0.168627 0 0 0 0 0.47451 0 0 0 0 0.415686 0 0 0 0.7 0"/>
<feBlend mode="darken" in2="shape" result="effect1_innerShadow_19_60"/>
</filter>
<filter id="filter4_i_19_60" x="456.198" y="262.922" width="61.6947" height="68.4478" filterUnits="userSpaceOnUse" color-interpolation-filters="sRGB">
<feFlood flood-opacity="0" result="BackgroundImageFix"/>
<feBlend mode="normal" in="SourceGraphic" in2="BackgroundImageFix" result="shape"/>
<feColorMatrix in="SourceAlpha" type="matrix" values="0 0 0 0 0 0 0 0 0 0 0 0 0 0 0 0 0 0 127 0" result="hardAlpha"/>
<feOffset dy="4"/>
<feGaussianBlur stdDeviation="4"/>
<feComposite in2="hardAlpha" operator="arithmetic" k2="-1" k3="1"/>
<feColorMatrix type="matrix" values="0 0 0 0 0.168627 0 0 0 0 0.47451 0 0 0 0 0.415686 0 0 0 0.7 0"/>
<feBlend mode="darken" in2="shape" result="effect1_innerShadow_19_60"/>
</filter>
<filter id="filter5_i_19_60" x="433.496" y="170.019" width="57.848" height="71.4681" filterUnits="userSpaceOnUse" color-interpolation-filters="sRGB">
<feFlood flood-opacity="0" result="BackgroundImageFix"/>
<feBlend mode="normal" in="SourceGraphic" in2="BackgroundImageFix" result="shape"/>
<feColorMatrix in="SourceAlpha" type="matrix" values="0 0 0 0 0 0 0 0 0 0 0 0 0 0 0 0 0 0 127 0" result="hardAlpha"/>
<feOffset dy="4"/>
<feGaussianBlur stdDeviation="4"/>
<feComposite in2="hardAlpha" operator="arithmetic" k2="-1" k3="1"/>
<feColorMatrix type="matrix" values="0 0 0 0 0.168627 0 0 0 0 0.47451 0 0 0 0 0.415686 0 0 0 0.7 0"/>
<feBlend mode="darken" in2="shape" result="effect1_innerShadow_19_60"/>
</filter>
<filter id="filter6_i_19_60" x="368.917" y="108.544" width="59.0111" height="72.5642" filterUnits="userSpaceOnUse" color-interpolation-filters="sRGB">
<feFlood flood-opacity="0" result="BackgroundImageFix"/>
<feBlend mode="normal" in="SourceGraphic" in2="BackgroundImageFix" result="shape"/>
<feColorMatrix in="SourceAlpha" type="matrix" values="0 0 0 0 0 0 0 0 0 0 0 0 0 0 0 0 0 0 127 0" result="hardAlpha"/>
<feOffset dy="4"/>
<feGaussianBlur stdDeviation="4"/>
<feComposite in2="hardAlpha" operator="arithmetic" k2="-1" k3="1"/>
<feColorMatrix type="matrix" values="0 0 0 0 0.168627 0 0 0 0 0.47451 0 0 0 0 0.415686 0 0 0 0.7 0"/>
<feBlend mode="darken" in2="shape" result="effect1_innerShadow_19_60"/>
</filter>
<filter id="filter7_i_19_60" x="268.686" y="85.4913" width="69" height="62" filterUnits="userSpaceOnUse" color-interpolation-filters="sRGB">
<feFlood flood-opacity="0" result="BackgroundImageFix"/>
<feBlend mode="normal" in="SourceGraphic" in2="BackgroundImageFix" result="shape"/>
<feColorMatrix in="SourceAlpha" type="matrix" values="0 0 0 0 0 0 0 0 0 0 0 0 0 0 0 0 0 0 127 0" result="hardAlpha"/>
<feOffset dy="4"/>
<feGaussianBlur stdDeviation="4"/>
<feComposite in2="hardAlpha" operator="arithmetic" k2="-1" k3="1"/>
<feColorMatrix type="matrix" values="0 0 0 0 0.168627 0 0 0 0 0.47451 0 0 0 0 0.415686 0 0 0 0.7 0"/>
<feBlend mode="darken" in2="shape" result="effect1_innerShadow_19_60"/>
</filter>
<filter id="filter8_i_19_60" x="163.314" y="113.048" width="67.2932" height="64.3105" filterUnits="userSpaceOnUse" color-interpolation-filters="sRGB">
<feFlood flood-opacity="0" result="BackgroundImageFix"/>
<feBlend mode="normal" in="SourceGraphic" in2="BackgroundImageFix" result="shape"/>
<feColorMatrix in="SourceAlpha" type="matrix" values="0 0 0 0 0 0 0 0 0 0 0 0 0 0 0 0 0 0 127 0" result="hardAlpha"/>
<feOffset dy="4"/>
<feGaussianBlur stdDeviation="4"/>
<feComposite in2="hardAlpha" operator="arithmetic" k2="-1" k3="1"/>
<feColorMatrix type="matrix" values="0 0 0 0 0.168627 0 0 0 0 0.47451 0 0 0 0 0.415686 0 0 0 0.7 0"/>
<feBlend mode="darken" in2="shape" result="effect1_innerShadow_19_60"/>
</filter>
<filter id="filter9_i_19_60" x="107.347" y="175.583" width="61.6947" height="68.4478" filterUnits="userSpaceOnUse" color-interpolation-filters="sRGB">
<feFlood flood-opacity="0" result="BackgroundImageFix"/>
<feBlend mode="normal" in="SourceGraphic" in2="BackgroundImageFix" result="shape"/>
<feColorMatrix in="SourceAlpha" type="matrix" values="0 0 0 0 0 0 0 0 0 0 0 0 0 0 0 0 0 0 127 0" result="hardAlpha"/>
<feOffset dy="4"/>
<feGaussianBlur stdDeviation="4"/>
<feComposite in2="hardAlpha" operator="arithmetic" k2="-1" k3="1"/>
<feColorMatrix type="matrix" values="0 0 0 0 0.168627 0 0 0 0 0.47451 0 0 0 0 0.415686 0 0 0 0.7 0"/>
<feBlend mode="darken" in2="shape" result="effect1_innerShadow_19_60"/>
</filter>
<filter id="filter10_i_19_60" x="85.0987" y="260.401" width="58" height="73" filterUnits="userSpaceOnUse" color-interpolation-filters="sRGB">
<feFlood flood-opacity="0" result="BackgroundImageFix"/>
<feBlend mode="normal" in="SourceGraphic" in2="BackgroundImageFix" result="shape"/>
<feColorMatrix in="SourceAlpha" type="matrix" values="0 0 0 0 0 0 0 0 0 0 0 0 0 0 0 0 0 0 127 0" result="hardAlpha"/>
<feOffset dy="4"/>
<feGaussianBlur stdDeviation="4"/>
<feComposite in2="hardAlpha" operator="arithmetic" k2="-1" k3="1"/>
<feColorMatrix type="matrix" values="0 0 0 0 0.168627 0 0 0 0 0.47451 0 0 0 0 0.415686 0 0 0 0.7 0"/>
<feBlend mode="darken" in2="shape" result="effect1_innerShadow_19_60"/>
</filter>
<filter id="filter11_i_19_60" x="102.284" y="351.055" width="62.3217" height="68.7104" filterUnits="userSpaceOnUse" color-interpolation-filters="sRGB">
<feFlood flood-opacity="0" result="BackgroundImageFix"/>
<feBlend mode="normal" in="SourceGraphic" in2="BackgroundImageFix" result="shape"/>
<feColorMatrix in="SourceAlpha" type="matrix" values="0 0 0 0 0 0 0 0 0 0 0 0 0 0 0 0 0 0 127 0" result="hardAlpha"/>
<feOffset dy="4"/>
<feGaussianBlur stdDeviation="4"/>
<feComposite in2="hardAlpha" operator="arithmetic" k2="-1" k3="1"/>
<feColorMatrix type="matrix" values="0 0 0 0 0.168627 0 0 0 0 0.47451 0 0 0 0 0.415686 0 0 0 0.7 0"/>
<feBlend mode="darken" in2="shape" result="effect1_innerShadow_19_60"/>
</filter>
<filter id="filter12_i_19_60" x="161.031" y="425.956" width="64.1727" height="66.0879" filterUnits="userSpaceOnUse" color-interpolation-filters="sRGB">
<feFlood flood-opacity="0" result="BackgroundImageFix"/>
<feBlend mode="normal" in="SourceGraphic" in2="BackgroundImageFix" result="shape"/>
<feColorMatrix in="SourceAlpha" type="matrix" values="0 0 0 0 0 0 0 0 0 0 0 0 0 0 0 0 0 0 127 0" result="hardAlpha"/>
<feOffset dy="4"/>
<feGaussianBlur stdDeviation="4"/>
<feComposite in2="hardAlpha" operator="arithmetic" k2="-1" k3="1"/>
<feColorMatrix type="matrix" values="0 0 0 0 0.168627 0 0 0 0 0.47451 0 0 0 0 0.415686 0 0 0 0.7 0"/>
<feBlend mode="darken" in2="shape" result="effect1_innerShadow_19_60"/>
</filter>
</defs>
</svg>
