<svg width="151" height="151" viewBox="0 0 151 151" fill="none" xmlns="http://www.w3.org/2000/svg">
<g id="logo mobile dark mode=logo mobile6">
<g id="Frame 27">
<g id="LOGO">
<circle id="Ellipse 1" cx="75.2861" cy="75.3064" r="75" fill="#EDFAF7"/>
<circle id="Ellipse 2" cx="75.2861" cy="75.3064" r="37.5" fill="#48C9B0"/>
<g id="Ellipse 3" filter="url(#filter0_d_102_2010)">
<path d="M103.428 69.4253C104.78 69.1428 105.656 67.8142 105.267 66.4896C103.324 59.8819 99.2425 54.0758 93.6286 50.0058C87.3375 45.445 79.5729 43.3914 71.8497 44.2459C64.1264 45.1004 56.9985 48.8016 51.8566 54.6274C46.7148 60.4532 43.9277 67.9857 44.0394 75.7553C44.151 83.5248 47.1532 90.9742 52.4603 96.6499C57.7674 102.326 64.9987 105.82 72.7433 106.453C80.4879 107.085 88.1903 104.809 94.3477 100.07C99.8424 95.8401 103.755 89.9191 105.508 83.2584C105.859 81.9231 104.945 80.6202 103.585 80.3767L101.44 79.9924C100.081 79.7489 98.7948 80.6587 98.4117 81.9852C96.9953 86.8898 94.048 91.2403 89.9685 94.3805C85.2257 98.0313 79.2928 99.7842 73.3275 99.2972C67.3621 98.8102 61.7922 96.1182 57.7043 91.7464C53.6165 87.3746 51.304 81.6367 51.218 75.6521C51.132 69.6675 53.2787 63.8656 57.2393 59.3782C61.1999 54.8908 66.6903 52.0399 72.6392 51.3818C78.5881 50.7236 84.5688 52.3053 89.4146 55.8184C93.5826 58.8401 96.6536 63.1042 98.2103 67.9661C98.6313 69.2811 99.9434 70.1535 101.295 69.8711L103.428 69.4253Z" fill="#E4F7F3"/>
</g>
<circle id="Ellipse 4" cx="75.2861" cy="75.3064" r="70" stroke="#48C9B0" stroke-width="2.5"/>
<circle id="Ellipse 5" cx="75.2861" cy="75.3064" r="57.5" stroke="#48C9B0" stroke-width="2.5"/>
<g id="Ellipse 6" filter="url(#filter1_i_102_2010)">
<path d="M83.0361 122.251C83.0361 126.393 78.1783 129.251 74.0361 129.251C69.894 129.251 65.7861 126.393 65.7861 122.251C65.7861 118.109 71.144 114.751 75.2861 114.751C79.4283 114.751 83.0361 118.109 83.0361 122.251Z" fill="#D35400"/>
</g>
<g id="Ellipse 7" filter="url(#filter2_i_102_2010)">
<path d="M108.762 111.962C110.247 115.829 106.736 120.238 102.869 121.722C99.0017 123.206 94.1425 122.01 92.6581 118.143C91.1737 114.276 94.9723 109.221 98.8394 107.737C102.706 106.253 107.278 108.095 108.762 111.962Z" fill="#D35400"/>
</g>
<g id="Ellipse 8" filter="url(#filter3_i_102_2010)">
<path d="M124.24 92.3312C126.496 95.8051 123.979 100.848 120.505 103.104C117.031 105.36 112.029 105.2 109.773 101.726C107.517 98.2524 110.182 92.5181 113.656 90.2622C117.13 88.0062 121.984 88.8574 124.24 92.3312Z" fill="#48C9B0"/>
</g>
<g id="Ellipse 9" filter="url(#filter4_i_102_2010)">
<path d="M128.146 68.1471C131.075 71.076 129.661 76.5319 126.732 79.4608C123.803 82.3897 118.878 83.2736 115.949 80.3447C113.02 77.4157 114.434 71.2528 117.363 68.3239C120.292 65.3949 125.217 65.2181 128.146 68.1471Z" fill="#EDFAF7"/>
</g>
<g id="Ellipse 10" filter="url(#filter5_i_102_2010)">
<path d="M119.624 43.4761C123.378 45.2266 123.915 50.8371 122.164 54.5912C120.414 58.3452 116.088 60.8604 112.333 59.1099C108.579 57.3593 107.8 51.0844 109.551 47.3303C111.302 43.5763 115.87 41.7255 119.624 43.4761Z" fill="#48C9B0"/>
</g>
<g id="Ellipse 11" filter="url(#filter6_i_102_2010)">
<path d="M98.6723 27.5219C102.751 26.8027 106.409 31.0905 107.129 35.1697C107.848 39.2489 105.747 43.7906 101.668 44.5099C97.5885 45.2291 93.3513 40.5358 92.632 36.4565C91.9127 32.3773 94.5931 28.2412 98.6723 27.5219Z" fill="#48C9B0"/>
</g>
<g id="Ellipse 12" filter="url(#filter7_i_102_2010)">
<path d="M84.7078 29.1792C84.7078 33.3214 79.8499 36.1792 75.7078 36.1792C71.5656 36.1792 67.4578 33.3214 67.4578 29.1792C67.4578 25.0371 72.8156 21.6792 76.9578 21.6792C81.0999 21.6792 84.7078 25.0371 84.7078 29.1792Z" fill="#D35400"/>
</g>
<g id="Ellipse 13" filter="url(#filter8_i_102_2010)">
<path d="M41.4302 38.7841C40.0135 34.8917 43.601 30.5447 47.4933 29.128C51.3856 27.7114 56.2232 28.9919 57.6399 32.8842C59.0566 36.7766 55.1703 41.7644 51.278 43.1811C47.3857 44.5978 42.8469 42.6764 41.4302 38.7841Z" fill="#D35400"/>
</g>
<g id="Ellipse 14" filter="url(#filter9_i_102_2010)">
<path d="M28.7359 58.2037C25.807 55.2748 27.2212 49.8189 30.1501 46.89C33.0791 43.9611 38.0046 43.0772 40.9335 46.0061C43.8624 48.9351 42.4482 55.098 39.5193 58.0269C36.5904 60.9559 31.6648 61.1327 28.7359 58.2037Z" fill="#48C9B0"/>
</g>
<g id="Ellipse 15" filter="url(#filter10_i_102_2010)">
<path d="M28.5608 82.6567C24.4186 82.6567 21.5608 77.7988 21.5608 73.6567C21.5608 69.5146 24.4186 65.4067 28.5608 65.4067C32.7029 65.4067 36.0608 70.7646 36.0608 74.9067C36.0608 79.0488 32.7029 82.6567 28.5608 82.6567Z" fill="#EDFAF7"/>
</g>
<g id="Ellipse 16" filter="url(#filter11_i_102_2010)">
<path d="M29.2119 88.9133C32.6976 86.6756 37.7269 89.2196 39.9647 92.7052C42.2025 96.1908 42.0168 101.192 38.5312 103.429C35.0455 105.667 29.3253 102.973 27.0875 99.4869C24.8498 96.0012 25.7263 91.1511 29.2119 88.9133Z" fill="#48C9B0"/>
</g>
<g id="Ellipse 17" filter="url(#filter12_i_102_2010)">
<path d="M42.8017 108.293C45.811 105.447 51.2254 107.012 54.0716 110.022C56.9179 113.031 57.6642 117.979 54.6549 120.826C51.6455 123.672 45.5243 122.087 42.6781 119.077C39.8319 116.068 39.7923 111.139 42.8017 108.293Z" fill="#48C9B0"/>
</g>
</g>
</g>
</g>
<defs>
<filter id="filter0_d_102_2010" x="42.5361" y="43.0563" width="65.0469" height="66.0001" filterUnits="userSpaceOnUse" color-interpolation-filters="sRGB">
<feFlood flood-opacity="0" result="BackgroundImageFix"/>
<feColorMatrix in="SourceAlpha" type="matrix" values="0 0 0 0 0 0 0 0 0 0 0 0 0 0 0 0 0 0 127 0" result="hardAlpha"/>
<feMorphology radius="0.25" operator="dilate" in="SourceAlpha" result="effect1_dropShadow_102_2010"/>
<feOffset dx="0.25" dy="0.75"/>
<feGaussianBlur stdDeviation="0.75"/>
<feComposite in2="hardAlpha" operator="out"/>
<feColorMatrix type="matrix" values="0 0 0 0 0.137255 0 0 0 0 0.188235 0 0 0 0 0.243137 0 0 0 0.8 0"/>
<feBlend mode="normal" in2="BackgroundImageFix" result="effect1_dropShadow_102_2010"/>
<feBlend mode="normal" in="SourceGraphic" in2="effect1_dropShadow_102_2010" result="shape"/>
</filter>
<filter id="filter1_i_102_2010" x="65.7861" y="114.751" width="17.25" height="15.5" filterUnits="userSpaceOnUse" color-interpolation-filters="sRGB">
<feFlood flood-opacity="0" result="BackgroundImageFix"/>
<feBlend mode="normal" in="SourceGraphic" in2="BackgroundImageFix" result="shape"/>
<feColorMatrix in="SourceAlpha" type="matrix" values="0 0 0 0 0 0 0 0 0 0 0 0 0 0 0 0 0 0 127 0" result="hardAlpha"/>
<feOffset dy="1"/>
<feGaussianBlur stdDeviation="1"/>
<feComposite in2="hardAlpha" operator="arithmetic" k2="-1" k3="1"/>
<feColorMatrix type="matrix" values="0 0 0 0 0.168627 0 0 0 0 0.47451 0 0 0 0 0.415686 0 0 0 0.7 0"/>
<feBlend mode="darken" in2="shape" result="effect1_innerShadow_102_2010"/>
</filter>
<filter id="filter2_i_102_2010" x="92.3291" y="107.225" width="16.7811" height="16.114" filterUnits="userSpaceOnUse" color-interpolation-filters="sRGB">
<feFlood flood-opacity="0" result="BackgroundImageFix"/>
<feBlend mode="normal" in="SourceGraphic" in2="BackgroundImageFix" result="shape"/>
<feColorMatrix in="SourceAlpha" type="matrix" values="0 0 0 0 0 0 0 0 0 0 0 0 0 0 0 0 0 0 127 0" result="hardAlpha"/>
<feOffset dy="1"/>
<feGaussianBlur stdDeviation="1"/>
<feComposite in2="hardAlpha" operator="arithmetic" k2="-1" k3="1"/>
<feColorMatrix type="matrix" values="0 0 0 0 0.168627 0 0 0 0 0.47451 0 0 0 0 0.415686 0 0 0 0.7 0"/>
<feBlend mode="darken" in2="shape" result="effect1_innerShadow_102_2010"/>
</filter>
<filter id="filter3_i_102_2010" x="108.939" y="89.0095" width="16.16" height="16.5931" filterUnits="userSpaceOnUse" color-interpolation-filters="sRGB">
<feFlood flood-opacity="0" result="BackgroundImageFix"/>
<feBlend mode="normal" in="SourceGraphic" in2="BackgroundImageFix" result="shape"/>
<feColorMatrix in="SourceAlpha" type="matrix" values="0 0 0 0 0 0 0 0 0 0 0 0 0 0 0 0 0 0 127 0" result="hardAlpha"/>
<feOffset dy="1"/>
<feGaussianBlur stdDeviation="1"/>
<feComposite in2="hardAlpha" operator="arithmetic" k2="-1" k3="1"/>
<feColorMatrix type="matrix" values="0 0 0 0 0.168627 0 0 0 0 0.47451 0 0 0 0 0.415686 0 0 0 0.7 0"/>
<feBlend mode="darken" in2="shape" result="effect1_innerShadow_102_2010"/>
</filter>
<filter id="filter4_i_102_2010" x="114.336" y="66.0368" width="15.4236" height="17.1119" filterUnits="userSpaceOnUse" color-interpolation-filters="sRGB">
<feFlood flood-opacity="0" result="BackgroundImageFix"/>
<feBlend mode="normal" in="SourceGraphic" in2="BackgroundImageFix" result="shape"/>
<feColorMatrix in="SourceAlpha" type="matrix" values="0 0 0 0 0 0 0 0 0 0 0 0 0 0 0 0 0 0 127 0" result="hardAlpha"/>
<feOffset dy="1"/>
<feGaussianBlur stdDeviation="1"/>
<feComposite in2="hardAlpha" operator="arithmetic" k2="-1" k3="1"/>
<feColorMatrix type="matrix" values="0 0 0 0 0.168627 0 0 0 0 0.47451 0 0 0 0 0.415686 0 0 0 0.7 0"/>
<feBlend mode="darken" in2="shape" result="effect1_innerShadow_102_2010"/>
</filter>
<filter id="filter5_i_102_2010" x="108.66" y="42.8111" width="14.462" height="17.867" filterUnits="userSpaceOnUse" color-interpolation-filters="sRGB">
<feFlood flood-opacity="0" result="BackgroundImageFix"/>
<feBlend mode="normal" in="SourceGraphic" in2="BackgroundImageFix" result="shape"/>
<feColorMatrix in="SourceAlpha" type="matrix" values="0 0 0 0 0 0 0 0 0 0 0 0 0 0 0 0 0 0 127 0" result="hardAlpha"/>
<feOffset dy="1"/>
<feGaussianBlur stdDeviation="1"/>
<feComposite in2="hardAlpha" operator="arithmetic" k2="-1" k3="1"/>
<feColorMatrix type="matrix" values="0 0 0 0 0.168627 0 0 0 0 0.47451 0 0 0 0 0.415686 0 0 0 0.7 0"/>
<feBlend mode="darken" in2="shape" result="effect1_innerShadow_102_2010"/>
</filter>
<filter id="filter6_i_102_2010" x="92.5154" y="27.4424" width="14.7528" height="18.141" filterUnits="userSpaceOnUse" color-interpolation-filters="sRGB">
<feFlood flood-opacity="0" result="BackgroundImageFix"/>
<feBlend mode="normal" in="SourceGraphic" in2="BackgroundImageFix" result="shape"/>
<feColorMatrix in="SourceAlpha" type="matrix" values="0 0 0 0 0 0 0 0 0 0 0 0 0 0 0 0 0 0 127 0" result="hardAlpha"/>
<feOffset dy="1"/>
<feGaussianBlur stdDeviation="1"/>
<feComposite in2="hardAlpha" operator="arithmetic" k2="-1" k3="1"/>
<feColorMatrix type="matrix" values="0 0 0 0 0.168627 0 0 0 0 0.47451 0 0 0 0 0.415686 0 0 0 0.7 0"/>
<feBlend mode="darken" in2="shape" result="effect1_innerShadow_102_2010"/>
</filter>
<filter id="filter7_i_102_2010" x="67.4578" y="21.6792" width="17.25" height="15.5" filterUnits="userSpaceOnUse" color-interpolation-filters="sRGB">
<feFlood flood-opacity="0" result="BackgroundImageFix"/>
<feBlend mode="normal" in="SourceGraphic" in2="BackgroundImageFix" result="shape"/>
<feColorMatrix in="SourceAlpha" type="matrix" values="0 0 0 0 0 0 0 0 0 0 0 0 0 0 0 0 0 0 127 0" result="hardAlpha"/>
<feOffset dy="1"/>
<feGaussianBlur stdDeviation="1"/>
<feComposite in2="hardAlpha" operator="arithmetic" k2="-1" k3="1"/>
<feColorMatrix type="matrix" values="0 0 0 0 0.168627 0 0 0 0 0.47451 0 0 0 0 0.415686 0 0 0 0.7 0"/>
<feBlend mode="darken" in2="shape" result="effect1_innerShadow_102_2010"/>
</filter>
<filter id="filter8_i_102_2010" x="41.1145" y="28.5684" width="16.8234" height="16.0776" filterUnits="userSpaceOnUse" color-interpolation-filters="sRGB">
<feFlood flood-opacity="0" result="BackgroundImageFix"/>
<feBlend mode="normal" in="SourceGraphic" in2="BackgroundImageFix" result="shape"/>
<feColorMatrix in="SourceAlpha" type="matrix" values="0 0 0 0 0 0 0 0 0 0 0 0 0 0 0 0 0 0 127 0" result="hardAlpha"/>
<feOffset dy="1"/>
<feGaussianBlur stdDeviation="1"/>
<feComposite in2="hardAlpha" operator="arithmetic" k2="-1" k3="1"/>
<feColorMatrix type="matrix" values="0 0 0 0 0.168627 0 0 0 0 0.47451 0 0 0 0 0.415686 0 0 0 0.7 0"/>
<feBlend mode="darken" in2="shape" result="effect1_innerShadow_102_2010"/>
</filter>
<filter id="filter9_i_102_2010" x="27.1229" y="44.2021" width="15.4236" height="17.1119" filterUnits="userSpaceOnUse" color-interpolation-filters="sRGB">
<feFlood flood-opacity="0" result="BackgroundImageFix"/>
<feBlend mode="normal" in="SourceGraphic" in2="BackgroundImageFix" result="shape"/>
<feColorMatrix in="SourceAlpha" type="matrix" values="0 0 0 0 0 0 0 0 0 0 0 0 0 0 0 0 0 0 127 0" result="hardAlpha"/>
<feOffset dy="1"/>
<feGaussianBlur stdDeviation="1"/>
<feComposite in2="hardAlpha" operator="arithmetic" k2="-1" k3="1"/>
<feColorMatrix type="matrix" values="0 0 0 0 0.168627 0 0 0 0 0.47451 0 0 0 0 0.415686 0 0 0 0.7 0"/>
<feBlend mode="darken" in2="shape" result="effect1_innerShadow_102_2010"/>
</filter>
<filter id="filter10_i_102_2010" x="21.5608" y="65.4067" width="14.5" height="18.25" filterUnits="userSpaceOnUse" color-interpolation-filters="sRGB">
<feFlood flood-opacity="0" result="BackgroundImageFix"/>
<feBlend mode="normal" in="SourceGraphic" in2="BackgroundImageFix" result="shape"/>
<feColorMatrix in="SourceAlpha" type="matrix" values="0 0 0 0 0 0 0 0 0 0 0 0 0 0 0 0 0 0 127 0" result="hardAlpha"/>
<feOffset dy="1"/>
<feGaussianBlur stdDeviation="1"/>
<feComposite in2="hardAlpha" operator="arithmetic" k2="-1" k3="1"/>
<feColorMatrix type="matrix" values="0 0 0 0 0.168627 0 0 0 0 0.47451 0 0 0 0 0.415686 0 0 0 0.7 0"/>
<feBlend mode="darken" in2="shape" result="effect1_innerShadow_102_2010"/>
</filter>
<filter id="filter11_i_102_2010" x="25.8571" y="88.0701" width="15.5804" height="17.1776" filterUnits="userSpaceOnUse" color-interpolation-filters="sRGB">
<feFlood flood-opacity="0" result="BackgroundImageFix"/>
<feBlend mode="normal" in="SourceGraphic" in2="BackgroundImageFix" result="shape"/>
<feColorMatrix in="SourceAlpha" type="matrix" values="0 0 0 0 0 0 0 0 0 0 0 0 0 0 0 0 0 0 127 0" result="hardAlpha"/>
<feOffset dy="1"/>
<feGaussianBlur stdDeviation="1"/>
<feComposite in2="hardAlpha" operator="arithmetic" k2="-1" k3="1"/>
<feColorMatrix type="matrix" values="0 0 0 0 0.168627 0 0 0 0 0.47451 0 0 0 0 0.415686 0 0 0 0.7 0"/>
<feBlend mode="darken" in2="shape" result="effect1_innerShadow_102_2010"/>
</filter>
<filter id="filter12_i_102_2010" x="40.5439" y="106.795" width="16.0432" height="16.522" filterUnits="userSpaceOnUse" color-interpolation-filters="sRGB">
<feFlood flood-opacity="0" result="BackgroundImageFix"/>
<feBlend mode="normal" in="SourceGraphic" in2="BackgroundImageFix" result="shape"/>
<feColorMatrix in="SourceAlpha" type="matrix" values="0 0 0 0 0 0 0 0 0 0 0 0 0 0 0 0 0 0 127 0" result="hardAlpha"/>
<feOffset dy="1"/>
<feGaussianBlur stdDeviation="1"/>
<feComposite in2="hardAlpha" operator="arithmetic" k2="-1" k3="1"/>
<feColorMatrix type="matrix" values="0 0 0 0 0.168627 0 0 0 0 0.47451 0 0 0 0 0.415686 0 0 0 0.7 0"/>
<feBlend mode="darken" in2="shape" result="effect1_innerShadow_102_2010"/>
</filter>
</defs>
</svg>
