<svg width="22" height="16" viewBox="0 0 22 16" fill="none" xmlns="http://www.w3.org/2000/svg">
<path d="M19.9199 7.6C17.8999 2.91 14.0999 0 9.99994 0C5.89994 0 2.09994 2.91 0.0799447 7.6C0.0248814 7.72617 -0.00354004 7.86234 -0.00354004 8C-0.00354004 8.13766 0.0248814 8.27383 0.0799447 8.4C2.09994 13.09 5.89994 16 9.99994 16C14.0999 16 17.8999 13.09 19.9199 8.4C19.975 8.27383 20.0034 8.13766 20.0034 8C20.0034 7.86234 19.975 7.72617 19.9199 7.6ZM9.99994 14C6.82994 14 3.82994 11.71 2.09994 8C3.82994 4.29 6.82994 2 9.99994 2C13.1699 2 16.1699 4.29 17.8999 8C16.1699 11.71 13.1699 14 9.99994 14ZM9.99994 4C9.20882 4 8.43546 4.2346 7.77766 4.67412C7.11987 5.11365 6.60718 5.73836 6.30443 6.46927C6.00168 7.20017 5.92246 8.00444 6.0768 8.78036C6.23114 9.55629 6.61211 10.269 7.17152 10.8284C7.73093 11.3878 8.44366 11.7688 9.21958 11.9231C9.99551 12.0775 10.7998 11.9983 11.5307 11.6955C12.2616 11.3928 12.8863 10.8801 13.3258 10.2223C13.7653 9.56448 13.9999 8.79113 13.9999 8C13.9999 6.93913 13.5785 5.92172 12.8284 5.17157C12.0782 4.42143 11.0608 4 9.99994 4ZM9.99994 10C9.60438 10 9.2177 9.8827 8.8888 9.66294C8.55991 9.44318 8.30356 9.13082 8.15219 8.76537C8.00081 8.39991 7.9612 7.99778 8.03837 7.60982C8.11554 7.22186 8.30603 6.86549 8.58573 6.58579C8.86544 6.30608 9.2218 6.1156 9.60976 6.03843C9.99773 5.96126 10.3999 6.00087 10.7653 6.15224C11.1308 6.30362 11.4431 6.55996 11.6629 6.88886C11.8826 7.21776 11.9999 7.60444 11.9999 8C11.9999 8.53043 11.7892 9.03914 11.4142 9.41421C11.0391 9.78929 10.5304 10 9.99994 10Z" fill="black"/>
<line x1="1.5932" y1="1.19494" x2="20.5932" y2="15.1949" stroke="black" stroke-width="2"/>
</svg>
